<svg 
 width="1280.000000pt" height="1280.000000pt" viewBox="0 0 1280.000000 1280.000000"
 preserveAspectRatio="xMidYMid meet">
<g transform="translate(0.000000,1280.000000) scale(0.100000,-0.100000)"
fill="#000000" stroke="none">
<path d="M0 6400 l0 -6400 6400 0 6400 0 0 6400 0 6400 -6400 0 -6400 0 0
-6400z m12780 0 l0 -6380 -6380 0 -6380 0 0 6380 0 6380 6380 0 6380 0 0
-6380z"/>
<path d="M4390 11330 l0 -249 -31 -16 c-17 -9 -37 -31 -44 -48 -13 -32 -10
-83 6 -93 21 -13 5 -22 -52 -28 -86 -10 -220 -51 -303 -92 -245 -123 -416
-341 -458 -583 -12 -68 -13 -71 -40 -71 l-28 0 0 -129 c0 -128 0 -130 26 -150
24 -19 40 -21 150 -21 l124 0 0 -1040 0 -1040 -953 0 -952 0 -158 -292 -157
-291 0 -1488 0 -1488 -21 -6 c-33 -11 -179 5 -238 26 -60 21 -109 61 -117 96
-5 17 1 29 20 44 52 41 23 129 -44 129 -70 0 -97 -90 -40 -132 16 -12 33 -31
36 -42 13 -41 46 -77 95 -101 26 -14 55 -25 64 -25 8 0 15 -4 15 -10 0 -5 -7
-10 -15 -10 -29 0 -113 -49 -134 -79 -12 -16 -24 -43 -27 -59 -5 -27 -10 -30
-57 -35 -105 -13 -209 -88 -223 -162 -5 -27 -1 -47 18 -83 90 -174 466 -174
556 0 18 35 23 56 18 80 -14 76 -117 151 -221 164 -76 9 -76 9 -64 43 15 44
70 87 131 104 61 17 208 30 232 21 15 -6 16 -75 16 -765 l0 -759 5225 0 5225
0 -2 1813 -3 1812 -172 3 -173 2 0 85 0 85 40 0 40 0 0 65 0 65 -130 0 -130 0
0 -65 0 -65 40 0 40 0 0 -85 0 -85 -230 0 -230 0 0 84 0 85 41 3 42 3 0 60 0
60 -127 3 -126 3 0 -66 0 -65 40 0 40 0 0 -85 0 -85 -230 0 -230 0 0 85 0 85
40 0 40 0 0 65 0 65 -130 0 -130 0 0 -65 0 -65 40 0 40 0 0 -85 0 -85 -107 0
-108 0 0 1095 0 1094 45 3 45 3 3 93 3 92 -76 0 c-75 0 -75 0 -75 27 0 43 -30
153 -60 220 -75 166 -227 318 -408 408 -84 41 -216 81 -300 91 l-61 6 16 34
c23 47 8 92 -40 123 l-37 24 0 139 0 138 187 0 187 0 -57 58 -57 57 57 58 58
57 -198 0 -197 0 0 -255 0 -254 -30 -16 c-39 -20 -63 -67 -55 -106 4 -16 11
-31 16 -34 21 -14 5 -23 -52 -29 -140 -16 -310 -83 -434 -171 -78 -55 -182
-165 -229 -243 -47 -77 -94 -205 -102 -277 l-7 -55 -73 0 -74 0 0 -95 0 -95
48 0 47 0 -3 -350 -3 -350 -1607 2 -1607 3 -3 1038 -2 1037 121 0 c120 0 121
0 150 29 29 29 29 30 29 150 l0 120 -27 3 c-25 3 -28 8 -39 73 -21 123 -65
220 -151 333 -134 176 -385 315 -610 338 l-62 7 14 28 c8 15 15 39 15 52 0 30
-35 75 -67 88 -23 9 -24 9 -21 141 l3 133 183 5 183 5 -56 55 -55 54 57 58 57
58 -197 0 -197 0 0 -250z m290 175 l-44 -45 44 -45 44 -45 -152 0 -152 0 0 90
0 90 152 0 152 0 -44 -45z m-230 -475 c24 -24 26 -77 3 -102 -37 -41 -123 -9
-123 46 0 63 77 99 120 56z m190 -180 c288 -74 520 -277 604 -530 13 -41 28
-96 31 -122 l7 -48 -877 0 -878 0 6 53 c22 212 189 439 417 565 70 39 216 88
300 101 100 15 291 6 390 -19z m-932 -748 c8 -54 -79 -101 -149 -82 -41 11
-89 60 -89 91 0 19 7 19 118 17 114 -3 117 -4 120 -26z m268 2 c14 -55 -81
-107 -153 -83 -49 16 -82 52 -75 84 4 25 5 25 113 25 108 0 109 0 115 -26z
m267 4 c9 -32 -10 -58 -59 -80 -82 -36 -185 14 -167 80 5 21 11 22 113 22 102
0 108 -1 113 -22z m265 -6 c8 -53 -77 -102 -144 -83 -62 17 -105 76 -77 105 4
3 54 5 112 4 103 -3 106 -4 109 -26z m268 2 c14 -53 -82 -108 -149 -84 -58 20
-97 77 -70 103 3 4 53 7 109 7 103 0 104 0 110 -26z m267 4 c9 -33 -16 -64
-68 -83 -43 -17 -47 -17 -90 0 -52 19 -77 50 -68 83 5 21 10 22 113 22 103 0
108 -1 113 -22z m287 16 c0 -29 -38 -76 -75 -94 -54 -26 -104 -19 -148 20 -24
22 -29 32 -23 53 l6 27 120 0 c66 0 120 -3 120 -6z m4190 -89 l-44 -45 44 -45
44 -45 -157 0 -157 0 0 90 0 90 157 0 157 0 -44 -45z m-5925 -40 c52 0 67 4
99 29 l37 28 22 -20 c65 -59 159 -56 230 6 12 11 20 13 25 5 16 -25 79 -53
120 -53 46 0 74 11 109 42 l22 20 34 -26 c62 -47 151 -47 207 0 l30 26 30 -26
c56 -47 145 -47 207 0 l34 26 22 -20 c35 -31 62 -42 107 -42 45 0 72 11 107
43 21 18 24 19 40 5 70 -61 169 -63 231 -6 l22 21 0 -74 c0 -45 -5 -80 -12
-87 -9 -9 -228 -12 -925 -12 -1046 0 -933 -13 -933 105 l0 66 37 -28 c31 -24
46 -28 98 -28z m1443 -3732 c-3 -3580 -3 -3588 -23 -3588 -17 0 -20 8 -23 47
-3 41 -7 49 -27 54 -13 3 -26 12 -29 20 -7 19 -65 18 -72 -1 -8 -19 -30 -19
-38 0 -3 9 -18 15 -36 15 -18 0 -33 -6 -36 -15 -4 -8 -10 -15 -16 -15 -5 0
-16 7 -24 15 -20 19 -63 19 -70 0 -8 -19 -21 -19 -40 0 -20 19 -63 19 -70 0
-8 -19 -21 -19 -40 0 -20 19 -63 19 -70 0 -8 -19 -21 -19 -40 0 -20 19 -63 19
-70 0 -8 -19 -21 -19 -40 0 -20 19 -63 19 -70 0 -8 -19 -28 -19 -44 0 -16 19
-59 19 -66 0 -8 -19 -28 -19 -44 0 -16 20 -49 19 -72 -2 -17 -15 -19 -15 -36
0 -26 23 -44 21 -91 -10 -38 -24 -41 -30 -41 -70 0 -36 -3 -43 -20 -43 -20 0
-20 7 -20 3590 l0 3590 635 0 635 0 -2 -3587z m4246 3276 c54 -42 25 -119 -45
-119 -43 0 -69 27 -69 71 0 30 40 69 70 69 10 0 29 -9 44 -21z m113 -164 c357
-58 642 -311 707 -627 9 -42 16 -80 16 -83 0 -3 -396 -5 -879 -5 l-880 0 5 38
c62 446 536 757 1031 677z m863 -807 l0 -68 -1025 0 -1025 0 0 63 c0 35 2 66
4 68 2 2 464 4 1025 4 l1021 0 0 -67z m-90 -213 l0 -115 -50 0 -50 0 0 -35 0
-35 -55 0 -55 0 0 -50 0 -50 55 0 55 0 0 -35 0 -35 51 0 c66 0 62 -24 -4 -28
-44 -3 -47 -5 -47 -32 0 -28 -2 -29 -52 -32 l-53 -3 -3 -47 -3 -48 55 0 56 0
0 -35 0 -35 50 0 c38 0 50 -4 50 -15 0 -11 -12 -15 -50 -15 l-50 0 0 -35 0
-35 -55 0 -55 0 0 -45 0 -45 55 0 55 0 0 -34 c0 -34 1 -35 47 -38 66 -4 70
-28 4 -28 l-51 0 0 -35 0 -35 -55 0 -55 0 0 -50 0 -50 55 0 55 0 0 -35 0 -35
51 0 c36 0 49 -4 46 -12 -2 -8 -22 -13 -48 -14 -43 0 -44 -1 -47 -37 l-3 -37
-55 0 -54 0 0 -45 0 -45 55 0 55 0 0 -35 0 -35 50 0 c38 0 50 -4 50 -15 0 -11
-12 -15 -50 -15 l-50 0 0 -35 0 -35 -55 0 -55 0 0 -45 0 -45 55 0 55 0 0 -34
c0 -34 1 -35 47 -38 66 -4 70 -28 4 -28 l-51 0 0 -35 0 -35 -55 0 -55 0 0 -50
0 -50 55 0 55 0 0 -35 0 -35 51 0 c66 0 62 -24 -4 -28 -46 -3 -47 -4 -47 -38
l0 -34 -55 0 -55 0 0 -45 0 -45 55 0 55 0 0 -35 0 -35 50 0 c38 0 50 -4 50
-15 0 -11 -12 -15 -50 -15 l-50 0 0 -35 0 -35 -55 0 -55 0 0 -45 0 -45 55 0
55 0 0 -34 c0 -34 1 -35 47 -38 66 -4 70 -28 4 -28 l-51 0 0 -35 0 -35 -55 0
-55 0 0 -50 0 -50 55 0 55 0 0 -35 0 -35 51 0 c66 0 62 -24 -4 -28 -46 -3 -47
-4 -47 -38 l0 -34 -55 0 -55 0 0 -45 0 -45 55 0 55 0 0 -35 0 -35 50 0 c38 0
50 -4 50 -15 0 -11 -12 -15 -50 -15 l-50 0 0 -35 0 -35 -55 0 -55 0 0 -45 0
-45 55 0 55 0 0 -34 c0 -34 1 -35 47 -38 66 -4 70 -28 4 -28 l-51 0 0 -35 0
-35 -55 0 -55 0 0 -50 0 -50 55 0 55 0 0 -35 0 -35 51 0 c66 0 62 -24 -4 -28
-46 -3 -47 -4 -47 -38 l0 -34 -55 0 -55 0 0 -45 0 -45 55 0 55 0 0 -35 0 -35
50 0 c38 0 50 -4 50 -15 0 -11 -12 -15 -50 -15 l-50 0 0 -35 0 -35 -55 0 -55
0 0 -45 0 -45 54 0 55 0 3 -37 c3 -38 3 -38 47 -39 65 -1 66 -24 2 -24 l-51 0
0 -35 0 -35 -55 0 -55 0 0 -50 0 -50 55 0 55 0 0 -35 0 -35 51 0 c66 0 62 -24
-4 -28 -46 -3 -47 -4 -47 -38 l0 -34 -55 0 -55 0 0 -45 0 -45 55 0 55 0 0 -35
0 -35 50 0 c38 0 50 -4 50 -15 0 -11 -12 -15 -50 -15 l-50 0 0 -35 0 -35 -56
0 -55 0 3 -47 3 -48 53 -3 c50 -3 52 -4 52 -32 0 -27 3 -29 47 -32 66 -4 70
-28 4 -28 l-51 0 0 -35 0 -35 -55 0 -55 0 0 -50 0 -50 55 0 55 0 0 -35 0 -35
51 0 c66 0 62 -24 -4 -28 -46 -3 -47 -4 -47 -38 l0 -34 -55 0 -55 0 0 -45 0
-45 55 0 55 0 0 -35 0 -35 50 0 c38 0 50 -4 50 -15 0 -11 -12 -15 -50 -15
l-50 0 0 -35 0 -35 -55 0 -55 0 0 -44 0 -45 53 -3 c51 -3 52 -4 57 -38 5 -34
6 -35 53 -38 46 -3 48 -4 45 -30 l-3 -27 -207 -3 -208 -2 0 240 0 240 -30 0
-30 0 0 -185 0 -185 -29 0 c-26 0 -30 4 -33 33 -2 17 -6 31 -10 30 -5 -2 -156
-3 -338 -3 l-330 0 0 -30 c0 -28 -2 -30 -40 -30 l-40 0 0 185 0 185 -30 0 -30
0 -2 -237 -3 -238 -247 -3 c-243 -2 -248 -2 -248 18 0 17 7 20 50 20 l50 0 0
35 0 35 56 0 55 0 -3 48 -3 47 -50 0 c-50 0 -50 0 -55 35 -5 34 -7 35 -52 38
-64 4 -62 22 2 22 l50 0 0 35 0 35 55 0 55 0 0 50 0 50 -55 0 -55 0 0 35 0 35
-51 0 c-66 0 -62 24 4 28 46 3 47 4 47 38 l0 34 55 0 55 0 0 45 0 45 -55 0
-55 0 0 35 0 35 -50 0 c-38 0 -50 4 -50 15 0 11 12 15 50 15 l50 0 0 35 0 35
56 0 55 0 -3 48 -3 47 -52 3 c-50 3 -52 4 -55 35 -3 31 -5 32 -50 35 -27 2
-48 7 -48 12 0 5 21 10 48 12 45 3 47 4 50 36 3 32 4 32 58 32 l54 0 0 50 0
50 -55 0 -55 0 0 35 0 35 -50 0 c-38 0 -50 4 -50 15 0 11 12 15 50 15 l50 0 0
35 0 35 55 0 55 0 0 45 0 45 -55 0 -55 0 0 35 0 35 -50 0 c-38 0 -50 4 -50 15
0 11 12 15 50 15 l50 0 0 35 0 35 56 0 55 0 -3 48 -3 47 -52 3 c-50 3 -52 4
-55 35 -3 31 -5 32 -50 35 -27 2 -48 7 -48 12 0 5 21 10 48 12 45 3 47 4 50
36 3 32 4 32 58 32 l54 0 0 50 0 50 -55 0 -55 0 0 35 0 35 -51 0 c-66 0 -62
24 4 28 46 3 47 4 47 38 l0 34 55 0 55 0 0 45 0 45 -55 0 -55 0 0 35 0 35 -50
0 c-38 0 -50 4 -50 15 0 11 12 15 50 15 l50 0 0 35 0 35 56 0 55 0 -3 48 -3
47 -52 3 c-50 3 -52 4 -55 35 -3 31 -5 32 -50 35 -27 2 -48 7 -48 12 0 5 21
10 48 12 45 3 47 4 50 36 3 32 4 32 58 32 l54 0 0 50 0 50 -55 0 -55 0 0 35 0
35 -50 0 c-38 0 -50 4 -50 15 0 11 12 15 50 15 l50 0 0 35 0 35 55 0 55 0 0
45 0 45 -55 0 -55 0 0 35 0 35 -50 0 c-38 0 -50 4 -50 15 0 11 12 15 50 15
l50 0 0 35 0 35 56 0 55 0 -3 48 -3 47 -52 3 c-50 3 -52 4 -55 35 -3 31 -5 32
-50 35 -27 2 -48 7 -48 12 0 5 21 10 48 12 45 3 47 4 50 35 3 31 5 32 55 35
l52 3 3 48 3 47 -55 0 -56 0 0 35 0 35 -50 0 c-38 0 -50 4 -50 15 0 11 12 15
50 15 l50 0 0 35 0 35 55 0 55 0 0 45 0 45 -55 0 -55 0 0 35 0 35 -50 0 c-38
0 -50 4 -50 15 0 11 12 15 50 15 l50 0 0 35 0 35 55 0 55 0 0 50 0 50 -54 0
c-54 0 -55 0 -58 33 -3 31 -5 32 -50 35 -27 2 -48 7 -48 12 0 5 21 10 48 12
45 3 47 4 50 36 3 32 4 32 58 32 l54 0 0 50 0 50 -55 0 -55 0 0 35 0 35 -50 0
c-38 0 -50 4 -50 15 0 11 12 15 50 15 l50 0 0 35 0 35 55 0 55 0 0 45 0 45
-55 0 -55 0 0 35 0 35 -50 0 c-38 0 -50 4 -50 15 0 11 12 15 50 15 l50 0 0 35
0 35 56 0 55 0 -3 48 -3 47 -52 3 c-50 3 -52 4 -55 35 -3 31 -5 32 -50 35 -27
2 -48 7 -48 12 0 5 21 10 48 12 45 3 47 4 50 35 3 31 5 32 55 35 l52 3 3 48 3
47 -55 0 -56 0 0 35 0 35 -50 0 c-38 0 -50 4 -50 15 0 11 12 15 50 15 l50 0 0
35 0 35 55 0 55 0 0 45 0 45 -55 0 -55 0 0 35 0 35 -50 0 -50 0 0 130 0 130
930 0 930 0 0 -115z m0 -165 c0 -16 -7 -20 -35 -20 -28 0 -35 4 -35 20 0 16 7
20 35 20 28 0 35 -4 35 -20z m-1790 -26 c0 -23 -3 -25 -32 -22 -25 2 -34 8
-36 26 -3 19 1 22 32 22 32 0 36 -3 36 -26z m1790 -44 c0 -19 -7 -20 -90 -20
-83 0 -90 1 -90 20 0 19 7 20 90 20 83 0 90 -1 90 -20z m-1680 -25 c0 -25 -1
-25 -90 -25 -81 0 -90 2 -90 18 0 29 8 32 97 32 82 0 83 0 83 -25z m1680 -45
c0 -16 -7 -20 -35 -20 -28 0 -35 4 -35 20 0 16 7 20 35 20 28 0 35 -4 35 -20z
m-1790 -25 c0 -22 -4 -25 -35 -25 -31 0 -35 3 -35 25 0 22 4 25 35 25 31 0 35
-3 35 -25z m1790 -95 c0 -16 -7 -20 -35 -20 -28 0 -35 4 -35 20 0 16 7 20 35
20 28 0 35 -4 35 -20z m-1790 -30 c0 -16 -7 -20 -35 -20 -28 0 -35 4 -35 20 0
16 7 20 35 20 28 0 35 -4 35 -20z m1790 -40 c0 -15 -7 -20 -29 -20 -15 0 -56
-3 -90 -6 -61 -7 -61 -7 -61 20 l0 26 90 0 c83 0 90 -1 90 -20z m-1680 -30 c0
-19 -7 -20 -90 -20 -83 0 -90 1 -90 20 0 19 7 20 90 20 83 0 90 -1 90 -20z
m1678 -42 c-2 -16 -11 -23 -35 -25 -30 -4 -33 -1 -33 21 0 23 4 26 36 26 31 0
35 -3 32 -22z m-1788 -28 c0 -16 -7 -20 -35 -20 -28 0 -35 4 -35 20 0 16 7 20
35 20 28 0 35 -4 35 -20z m-6420 -14 c0 -7 -279 -518 -291 -532 -11 -13 -90
-20 -101 -9 -3 3 60 127 140 275 l145 270 53 0 c30 0 54 -2 54 -4z m140 1 c0
-4 -247 -458 -274 -504 -25 -42 -27 -43 -76 -43 -27 0 -50 2 -50 5 0 3 66 127
147 275 l146 270 54 0 c29 0 53 -1 53 -3z m91 -90 c-27 -51 -94 -174 -148
-272 l-98 -180 -52 -3 c-29 -2 -53 0 -53 3 0 4 60 118 134 253 73 136 138 257
145 270 10 19 20 22 67 22 l55 0 -50 -93z m150 21 c-22 -40 -89 -163 -149
-273 l-108 -200 -53 -3 c-48 -3 -53 -1 -47 15 7 18 199 376 258 481 l29 52 55
0 55 0 -40 -72z m169 64 c0 -4 -65 -126 -144 -272 l-143 -265 -52 -3 c-28 -2
-51 1 -51 6 0 8 207 396 266 500 24 40 27 42 74 42 28 0 50 -3 50 -8z m140 2
c0 -13 -283 -529 -294 -536 -17 -12 -96 -9 -96 2 0 10 242 462 276 518 12 18
23 22 64 22 28 0 50 -3 50 -6z m140 1 c0 -11 -285 -530 -295 -537 -16 -12 -95
-9 -95 3 0 6 64 130 143 275 l142 264 53 0 c28 0 52 -2 52 -5z m140 2 c0 -8
-279 -519 -291 -533 -13 -16 -105 -17 -102 -1 0 4 65 127 144 273 l143 264 53
0 c29 0 53 -2 53 -3z m120 -38 c-43 -83 -263 -484 -272 -496 -10 -12 -108 -19
-108 -8 0 2 66 126 146 275 l147 270 54 0 53 0 -20 -41z m111 -51 c-27 -51
-94 -174 -148 -273 l-98 -180 -52 -3 c-29 -2 -53 0 -53 4 0 3 66 127 146 275
l146 269 55 0 54 0 -50 -92z m147 15 c-23 -43 -90 -166 -148 -273 l-106 -195
-53 -3 c-48 -3 -53 -1 -47 15 7 18 199 376 258 481 l29 52 55 0 55 0 -43 -77z
m167 60 c-15 -41 -278 -519 -288 -525 -17 -11 -97 -10 -97 1 0 7 210 401 266
499 24 41 26 42 75 42 45 0 50 -2 44 -17z m145 11 c0 -4 -66 -128 -146 -275
l-145 -269 -50 0 c-27 0 -49 5 -49 10 0 10 244 466 276 518 12 18 23 22 64 22
28 0 50 -3 50 -6z m120 -17 c0 -21 -243 -484 -270 -514 -14 -16 -100 -17 -100
-2 0 6 64 130 143 275 l142 264 43 0 c37 0 42 -3 42 -23z m1400 -77 l0 -100
-35 0 -35 0 0 100 0 100 35 0 35 0 0 -100z m60 0 c0 -93 -1 -100 -20 -100 -19
0 -20 7 -20 93 0 95 3 107 27 107 10 0 13 -23 13 -100z m130 0 l0 -100 -50 0
-50 0 0 100 0 100 50 0 50 0 0 -100z m60 0 c0 -93 -1 -100 -20 -100 -19 0 -20
7 -20 93 0 95 3 107 27 107 10 0 13 -23 13 -100z m128 -2 l3 -98 -51 0 -50 0
0 101 0 100 48 -3 47 -3 3 -97z m62 2 c0 -93 -1 -100 -20 -100 -19 0 -20 7
-20 100 0 93 1 100 20 100 19 0 20 -7 20 -100z m120 0 l0 -100 -45 0 -45 0 0
100 0 100 45 0 45 0 0 -100z m70 0 c0 -93 -1 -100 -20 -100 -19 0 -20 7 -20
100 0 93 1 100 20 100 19 0 20 -7 20 -100z m120 0 l0 -100 -50 0 -50 0 0 93
c0 52 3 97 7 100 3 4 26 7 50 7 l43 0 0 -100z m68 -3 c3 -92 2 -97 -18 -97
-19 0 -20 6 -20 101 0 90 2 100 18 97 14 -3 17 -17 20 -101z m122 3 l0 -100
-50 0 -50 0 0 100 0 100 50 0 50 0 0 -100z m68 -3 c3 -92 2 -97 -18 -97 -19 0
-20 6 -20 101 0 90 2 100 18 97 14 -3 17 -17 20 -101z m122 3 l0 -100 -50 0
-50 0 0 100 0 100 50 0 50 0 0 -100z m60 0 c0 -93 -1 -100 -20 -100 -19 0 -20
7 -20 93 0 95 3 107 27 107 10 0 13 -23 13 -100z m130 0 l0 -100 -50 0 -50 0
0 100 0 100 50 0 50 0 0 -100z m60 0 c0 -93 -1 -100 -20 -100 -19 0 -20 7 -20
93 0 95 3 107 27 107 10 0 13 -23 13 -100z m128 -2 l3 -98 -51 0 -50 0 0 101
0 100 48 -3 47 -3 3 -97z m62 2 c0 -93 -1 -100 -20 -100 -19 0 -20 7 -20 100
0 93 1 100 20 100 19 0 20 -7 20 -100z m120 0 l0 -100 -45 0 -45 0 0 100 0
100 45 0 45 0 0 -100z m70 0 c0 -93 -1 -100 -20 -100 -19 0 -20 7 -20 100 0
93 1 100 20 100 19 0 20 -7 20 -100z m120 0 l0 -100 -50 0 -50 0 0 93 c0 52 3
97 7 100 3 4 26 7 50 7 l43 0 0 -100z m70 0 c0 -93 -1 -100 -20 -100 -19 0
-20 7 -20 100 0 93 1 100 20 100 19 0 20 -7 20 -100z m120 0 l0 -100 -50 0
-50 0 0 100 0 100 50 0 50 0 0 -100z m68 -3 c3 -92 2 -97 -18 -97 -19 0 -20 6
-20 101 0 90 2 100 18 97 14 -3 17 -17 20 -101z m122 3 l0 -100 -50 0 -50 0 0
100 0 100 50 0 50 0 0 -100z m60 0 c0 -93 -1 -100 -20 -100 -19 0 -20 7 -20
93 0 95 3 107 27 107 10 0 13 -23 13 -100z m130 0 l0 -100 -50 0 -50 0 0 100
0 100 50 0 50 0 0 -100z m60 0 c0 -93 -1 -100 -20 -100 -19 0 -20 7 -20 93 0
95 3 107 27 107 10 0 13 -23 13 -100z m128 -2 l3 -98 -51 0 -50 0 0 101 0 100
48 -3 47 -3 3 -97z m62 2 c0 -93 -1 -100 -20 -100 -19 0 -20 7 -20 100 0 93 1
100 20 100 19 0 20 -7 20 -100z m120 0 l0 -100 -45 0 -45 0 0 100 0 100 45 0
45 0 0 -100z m70 0 c0 -93 -1 -100 -20 -100 -19 0 -20 7 -20 100 0 93 1 100
20 100 19 0 20 -7 20 -100z m120 0 l0 -100 -50 0 -50 0 0 93 c0 52 3 97 7 100
3 4 26 7 50 7 l43 0 0 -100z m70 0 c0 -93 -1 -100 -20 -100 -19 0 -20 7 -20
100 0 93 1 100 20 100 19 0 20 -7 20 -100z m60 0 c0 -93 -1 -100 -20 -100 -19
0 -20 7 -20 100 0 93 1 100 20 100 19 0 20 -7 20 -100z m1888 13 c3 -20 -1
-23 -32 -23 -32 0 -36 3 -36 26 0 23 3 25 33 22 24 -2 33 -8 35 -25z m-1788
-23 c0 -16 -7 -20 -35 -20 -28 0 -35 4 -35 20 0 16 7 20 35 20 28 0 35 -4 35
-20z m-4691 -288 c-79 -148 -83 -152 -133 -152 -23 0 -45 2 -48 5 -3 4 47 103
111 221 l116 215 3 -96 3 -96 -52 -97z m6452 258 c22 0 29 -5 29 -20 0 -19 -7
-20 -90 -20 l-90 0 0 26 c0 27 0 27 61 20 34 -3 75 -6 90 -6z m-1651 -40 c0
-19 -7 -20 -90 -20 -83 0 -90 1 -90 20 0 19 7 20 90 20 83 0 90 -1 90 -20z
m1678 -47 c3 -20 -1 -23 -32 -23 -32 0 -36 3 -36 26 0 23 3 25 33 22 24 -2 33
-8 35 -25z m-1888 -2428 l0 -2425 -175 0 -175 0 0 69 0 70 38 3 c34 3 37 6 37
33 0 27 -3 30 -37 33 l-38 3 0 424 0 424 38 3 c31 2 38 7 40 27 4 29 -20 51
-55 51 -22 0 -23 3 -23 85 l0 85 -1155 0 -1154 0 -3 -82 -3 -83 -35 -5 c-31
-4 -35 -8 -35 -35 0 -27 4 -31 35 -35 l35 -5 3 -422 2 -422 -37 -3 c-31 -2
-39 -7 -41 -26 -5 -32 15 -52 49 -52 l29 0 0 -70 0 -70 -275 0 -275 0 0 70 0
70 45 0 c45 0 45 0 45 35 l0 35 55 0 55 0 0 45 0 45 -55 0 -55 0 0 35 c0 35 0
35 -45 35 l-45 0 0 85 0 85 119 0 120 0 3 43 3 42 57 0 58 0 0 58 0 57 -60 0
-60 0 0 40 0 40 -120 0 -120 0 0 2015 0 2015 1605 0 1605 0 0 -2425z m100
2405 c0 -16 -7 -20 -35 -20 -28 0 -35 4 -35 20 0 16 7 20 35 20 28 0 35 -4 35
-20z m1790 -100 c0 -16 -7 -20 -35 -20 -28 0 -35 4 -35 20 0 16 7 20 35 20 28
0 35 -4 35 -20z m-1790 -26 c0 -23 -3 -25 -32 -22 -25 2 -34 8 -36 26 -3 19 1
22 32 22 32 0 36 -3 36 -26z m-4640 -84 l0 -90 -50 0 c-27 0 -50 2 -50 5 0 8
91 175 96 175 2 0 4 -40 4 -90z m6430 40 c0 -19 -7 -20 -90 -20 -83 0 -90 1
-90 20 0 19 7 20 90 20 83 0 90 -1 90 -20z m-1680 -25 c0 -25 -1 -25 -84 -25
-85 0 -103 7 -92 35 4 12 25 15 91 15 84 0 85 0 85 -25z m1680 -45 c0 -16 -7
-20 -35 -20 -28 0 -35 4 -35 20 0 16 7 20 35 20 28 0 35 -4 35 -20z m-1790
-25 c0 -22 -4 -25 -35 -25 -27 0 -35 4 -35 18 0 25 9 32 42 32 23 0 28 -4 28
-25z m-6580 -74 c0 -25 -49 -77 -85 -89 -54 -18 -111 1 -142 47 -13 19 -23 38
-23 42 0 5 56 9 125 9 69 0 125 -4 125 -9z m273 -8 c-15 -41 -37 -63 -78 -79
-54 -20 -102 -7 -140 37 -46 55 -39 59 100 59 114 0 124 -1 118 -17z m277 3
c0 -25 -49 -74 -85 -86 -26 -9 -44 -9 -69 0 -41 13 -86 56 -86 81 0 18 10 19
120 19 97 0 120 -3 120 -14z m280 7 c0 -18 -41 -73 -62 -84 -33 -18 -99 -15
-131 6 -24 15 -57 62 -57 80 0 3 56 5 125 5 69 0 125 -3 125 -7z m268 -23
c-29 -83 -152 -100 -212 -29 -47 55 -40 59 98 59 l125 0 -11 -30z m282 16 c0
-25 -49 -74 -85 -86 -46 -15 -96 1 -130 41 -45 55 -39 59 95 59 97 0 120 -3
120 -14z m280 0 c0 -26 -50 -75 -87 -85 -19 -6 -49 -7 -65 -4 -33 7 -83 52
-91 82 -5 20 -1 21 119 21 101 0 124 -3 124 -14z m280 9 c0 -18 -33 -65 -57
-80 -32 -21 -98 -24 -131 -6 -21 11 -62 66 -62 84 0 4 56 7 125 7 69 0 125 -2
125 -5z m6430 -25 c0 -16 -7 -20 -35 -20 -28 0 -35 4 -35 20 0 16 7 20 35 20
28 0 35 -4 35 -20z m-1790 -30 c0 -16 -7 -20 -35 -20 -28 0 -35 4 -35 20 0 16
7 20 35 20 28 0 35 -4 35 -20z m-6494 -56 c68 -29 141 -12 183 42 l21 27 21
-27 c58 -73 187 -74 235 -1 l17 26 31 -29 c42 -40 68 -52 110 -52 48 0 76 12
112 49 l31 32 16 -24 c48 -73 178 -75 235 -2 l20 25 34 -34 c61 -61 155 -61
216 0 l34 34 20 -25 c57 -73 187 -71 235 2 l16 24 28 -30 c60 -66 149 -70 217
-8 l22 20 0 -2216 0 -2217 -25 0 c-23 0 -25 4 -25 45 0 40 -3 47 -27 58 -16 6
-32 17 -36 24 -11 18 -52 16 -71 -2 -19 -19 -32 -19 -40 0 -7 19 -65 20 -72 1
-10 -26 -55 -29 -85 -7 -34 25 -56 26 -81 4 -17 -15 -19 -15 -36 0 -23 21 -56
22 -72 2 -16 -19 -36 -19 -44 0 -7 19 -50 19 -66 0 -16 -19 -36 -19 -44 0 -7
19 -50 19 -66 0 -16 -19 -36 -19 -44 0 -7 19 -50 19 -70 0 -8 -8 -19 -15 -24
-15 -6 0 -12 7 -16 15 -7 19 -50 19 -70 0 -8 -8 -19 -15 -24 -15 -6 0 -12 7
-16 15 -8 21 -49 19 -76 -5 -13 -11 -29 -20 -36 -20 -8 0 -14 -17 -16 -47 -3
-46 -4 -48 -33 -48 -28 0 -30 3 -33 43 -3 42 -3 42 -43 42 -38 0 -39 1 -39 36
0 27 -5 37 -20 41 -20 5 -20 14 -20 614 l0 609 -53 34 c-85 54 -140 70 -247
69 -105 0 -166 -18 -253 -73 l-47 -30 0 -609 c0 -600 0 -609 -20 -614 -15 -4
-20 -14 -20 -41 0 -35 -1 -36 -39 -36 -40 0 -40 0 -43 -42 l-3 -43 -47 -3 -48
-3 0 2215 0 2216 20 -20 c59 -59 157 -53 220 15 l24 26 20 -27 c11 -14 34 -33
52 -40z m8284 16 c0 -15 -7 -20 -29 -20 -15 0 -56 -3 -90 -6 -61 -7 -61 -7
-61 20 l0 26 90 0 c83 0 90 -1 90 -20z m-1680 -30 c0 -19 -7 -20 -90 -20 -83
0 -90 1 -90 20 0 19 7 20 90 20 83 0 90 -1 90 -20z m1678 -42 c-2 -18 -11 -24
-35 -26 -30 -3 -33 -1 -33 22 0 23 4 26 36 26 31 0 35 -3 32 -22z m-1788 -28
c0 -16 -7 -20 -35 -20 -28 0 -35 4 -35 20 0 16 7 20 35 20 28 0 35 -4 35 -20z
m1788 -97 c3 -20 -1 -23 -32 -23 -32 0 -36 3 -36 26 0 23 3 25 33 22 24 -2 33
-8 35 -25z m-1788 -23 c0 -16 -7 -20 -35 -20 -28 0 -35 4 -35 20 0 16 7 20 35
20 28 0 35 -4 35 -20z m1788 -47 c3 -22 1 -23 -87 -23 -91 0 -91 0 -91 25 l0
26 88 -3 c82 -3 87 -4 90 -25z m-1678 -23 c0 -19 -7 -20 -90 -20 -83 0 -90 1
-90 20 0 19 7 20 90 20 83 0 90 -1 90 -20z m1680 -50 c0 -16 -7 -20 -35 -20
-28 0 -35 4 -35 20 0 16 7 20 35 20 28 0 35 -4 35 -20z m-1790 -20 c0 -16 -7
-20 -35 -20 -28 0 -35 4 -35 20 0 16 7 20 35 20 28 0 35 -4 35 -20z m1790
-100 c0 -16 -7 -20 -35 -20 -28 0 -35 4 -35 20 0 16 7 20 35 20 28 0 35 -4 35
-20z m-1790 -26 c0 -23 -3 -25 -32 -22 -25 2 -34 8 -36 26 -3 19 1 22 32 22
32 0 36 -3 36 -26z m1790 -44 c0 -19 -7 -20 -90 -20 -83 0 -90 1 -90 20 0 19
7 20 90 20 83 0 90 -1 90 -20z m390 -25 l0 -35 -100 0 -100 0 0 35 0 35 100 0
100 0 0 -35z m560 0 l0 -35 -105 0 -105 0 0 35 0 35 105 0 105 0 0 -35z m552
0 l-4 -35 -99 0 -99 0 0 35 0 35 103 0 103 0 -4 -35z m-3182 0 c0 -25 -1 -25
-84 -25 -85 0 -103 7 -92 35 4 12 25 15 91 15 84 0 85 0 85 -25z m1680 -45 c0
-16 -7 -20 -35 -20 -28 0 -35 4 -35 20 0 16 7 20 35 20 28 0 35 -4 35 -20z
m-1790 -25 c0 -22 -4 -25 -35 -25 -27 0 -35 4 -35 18 0 25 9 32 42 32 23 0 28
-4 28 -25z m2100 -80 c0 -78 -2 -85 -20 -85 -18 0 -20 7 -20 85 0 78 2 85 20
85 18 0 20 -7 20 -85z m560 0 c0 -84 0 -85 -25 -85 -25 0 -25 1 -25 85 0 84 0
85 25 85 25 0 25 -1 25 -85z m550 0 c0 -78 -2 -85 -20 -85 -18 0 -20 7 -20 85
0 78 2 85 20 85 18 0 20 -7 20 -85z m-1420 -15 c0 -16 -7 -20 -35 -20 -28 0
-35 4 -35 20 0 16 7 20 35 20 28 0 35 -4 35 -20z m-1790 -30 c0 -16 -7 -20
-35 -20 -28 0 -35 4 -35 20 0 16 7 20 35 20 28 0 35 -4 35 -20z m1788 -40 c-3
-19 -12 -21 -90 -26 l-88 -4 0 25 c0 25 0 25 91 25 85 0 90 -1 87 -20z m-1678
-30 c0 -19 -7 -20 -90 -20 -83 0 -90 1 -90 20 0 19 7 20 90 20 83 0 90 -1 90
-20z m3450 -429 l0 -430 -52 -3 c-52 -3 -53 -4 -56 -35 -3 -31 -5 -32 -55 -35
l-52 -3 -3 -47 -3 -48 55 0 56 0 0 -35 0 -35 55 0 55 0 0 -445 0 -445 -44 0
c-43 0 -45 -1 -48 -32 -3 -33 -4 -33 -60 -36 l-58 -3 0 -44 0 -44 58 -3 57 -3
0 -32 c0 -33 0 -33 47 -33 l48 0 0 -680 0 -680 -30 0 -30 0 0 114 0 114 -29
10 c-24 8 -30 17 -33 44 -2 26 -8 34 -26 36 -32 5 -52 -15 -52 -49 0 -19 -5
-29 -15 -29 -11 0 -15 11 -15 35 0 40 -15 51 -55 41 -21 -5 -25 -12 -25 -41 0
-24 -5 -35 -15 -35 -11 0 -15 11 -15 35 0 40 -15 51 -55 41 -21 -5 -25 -12
-25 -41 0 -24 -5 -35 -15 -35 -11 0 -15 11 -15 35 0 40 -15 51 -55 41 -21 -5
-25 -12 -25 -41 0 -24 -5 -35 -15 -35 -11 0 -15 11 -15 35 0 40 -15 51 -55 41
-21 -5 -25 -12 -25 -41 0 -24 -5 -35 -15 -35 -11 0 -15 11 -15 35 0 40 -15 51
-55 41 -21 -5 -25 -12 -25 -41 0 -50 -28 -48 -32 3 -3 35 -5 37 -38 37 -33 0
-35 -2 -38 -37 -4 -51 -30 -51 -34 0 -3 35 -5 37 -38 37 -33 0 -35 -2 -38 -37
-2 -24 -8 -38 -17 -38 -9 0 -15 14 -17 38 -3 35 -5 37 -38 37 -33 0 -35 -2
-38 -37 -2 -24 -8 -38 -17 -38 -9 0 -15 14 -17 38 -3 35 -5 37 -38 37 -33 0
-35 -2 -38 -37 -4 -51 -30 -51 -34 0 -3 35 -5 37 -38 37 -33 0 -35 -2 -38 -37
-4 -51 -30 -51 -34 0 -3 35 -5 37 -38 37 -33 0 -35 -2 -38 -37 -4 -51 -32 -53
-32 -3 0 29 -4 36 -25 41 -40 10 -55 -1 -55 -41 0 -24 -4 -35 -15 -35 -10 0
-15 11 -15 35 0 29 -4 36 -25 41 -39 10 -55 -2 -55 -39 0 -30 -4 -35 -30 -40
l-30 -6 0 -116 0 -116 -25 3 c-14 2 -25 6 -25 11 0 4 0 84 0 177 l0 170 99 0
100 0 3 28 c3 24 7 27 46 30 42 3 42 3 42 43 l0 39 -45 0 c-41 0 -45 2 -45 25
l0 25 -100 0 -100 0 0 930 0 930 125 0 125 0 0 45 0 45 60 0 60 0 0 55 0 55
-60 0 -60 0 0 40 0 40 -125 0 -125 0 0 445 0 445 870 0 870 0 0 -429z m-1775
384 c0 -15 -8 -21 -32 -23 -30 -3 -33 -1 -33 23 0 24 3 26 33 23 24 -2 32 -8
32 -23z m-1785 -25 c0 -16 -7 -20 -35 -20 -28 0 -35 4 -35 20 0 16 7 20 35 20
28 0 35 -4 35 -20z m1788 -97 c3 -20 -1 -23 -32 -23 -32 0 -36 3 -36 26 0 23
3 25 33 22 24 -2 33 -8 35 -25z m-1788 -23 c0 -16 -7 -20 -35 -20 -28 0 -35 4
-35 20 0 16 7 20 35 20 28 0 35 -4 35 -20z m1789 -36 c2 -2 1 -10 -2 -19 -5
-12 -24 -15 -92 -15 -85 0 -85 0 -85 26 l0 26 88 -7 c48 -4 89 -9 91 -11z
m-1679 -34 c0 -19 -7 -20 -90 -20 -83 0 -90 1 -90 20 0 19 7 20 90 20 83 0 90
-1 90 -20z m1680 -51 c0 -15 -7 -19 -35 -19 -28 0 -35 4 -35 19 0 14 8 21 28
23 35 5 42 1 42 -23z m-1790 -19 c0 -16 -7 -20 -35 -20 -28 0 -35 4 -35 20 0
16 7 20 35 20 28 0 35 -4 35 -20z m1790 -100 c0 -16 -7 -20 -35 -20 -28 0 -35
4 -35 20 0 16 7 20 35 20 28 0 35 -4 35 -20z m-1790 -25 c0 -21 -5 -25 -29
-25 -17 0 -33 5 -36 10 -13 21 4 40 35 40 25 0 30 -4 30 -25z m1790 -45 c0
-19 -7 -20 -90 -20 -83 0 -90 1 -90 20 0 19 7 20 90 20 83 0 90 -1 90 -20z
m-1680 -25 c0 -25 -1 -25 -84 -25 -85 0 -103 7 -92 35 4 12 25 15 91 15 84 0
85 0 85 -25z m1680 -45 c0 -16 -7 -20 -35 -20 -28 0 -35 4 -35 20 0 16 7 20
35 20 28 0 35 -4 35 -20z m-1790 -25 c0 -22 -4 -25 -35 -25 -27 0 -35 4 -35
18 0 25 9 32 42 32 23 0 28 -4 28 -25z m1788 -97 c-2 -13 -6 -22 -10 -20 -5 1
-19 2 -33 2 -18 0 -25 5 -25 20 0 16 7 20 36 20 31 0 35 -3 32 -22z m-1788
-28 c0 -16 -7 -20 -35 -20 -28 0 -35 4 -35 20 0 16 7 20 35 20 28 0 35 -4 35
-20z m1787 -35 c3 -9 4 -17 2 -19 -2 -2 -43 -7 -91 -11 l-88 -7 0 26 c0 26 0
26 85 26 68 0 87 -3 92 -15z m-1677 -35 c0 -19 -7 -20 -90 -20 -83 0 -90 1
-90 20 0 19 7 20 90 20 83 0 90 -1 90 -20z m1678 -42 c-2 -18 -11 -24 -35 -26
-30 -3 -33 -1 -33 22 0 23 4 26 36 26 31 0 35 -3 32 -22z m-1788 -28 c0 -16
-7 -20 -35 -20 -28 0 -35 4 -35 20 0 16 7 20 35 20 28 0 35 -4 35 -20z m3550
-50 c0 -16 -7 -20 -35 -20 -28 0 -35 4 -35 20 0 16 7 20 35 20 28 0 35 -4 35
-20z m-1510 -30 l0 -30 -110 0 c-109 0 -110 0 -110 23 0 13 3 27 7 30 3 4 53
7 110 7 l103 0 0 -30z m-252 -17 c3 -20 -1 -23 -32 -23 -32 0 -36 3 -36 26 0
23 3 25 33 22 24 -2 33 -8 35 -25z m-1788 -23 c0 -16 -7 -20 -35 -20 -28 0
-35 4 -35 20 0 16 7 20 35 20 28 0 35 -4 35 -20z m3550 0 c0 -19 -7 -20 -90
-20 -83 0 -90 1 -90 20 0 19 7 20 90 20 83 0 90 -1 90 -20z m-1789 -30 c22 0
29 -5 29 -20 0 -19 -7 -20 -90 -20 l-90 0 0 26 c0 27 0 27 61 20 34 -3 75 -6
90 -6z m159 -20 c0 -29 -1 -30 -50 -30 -49 0 -50 1 -50 30 0 29 1 30 50 30 49
0 50 -1 50 -30z m248 3 l-3 -28 -107 -3 -108 -3 0 31 0 30 111 0 110 0 -3 -27z
m-2058 -23 c0 -19 -7 -20 -90 -20 -83 0 -90 1 -90 20 0 19 7 20 90 20 83 0 90
-1 90 -20z m3440 0 c0 -16 -7 -20 -35 -20 -28 0 -35 4 -35 20 0 16 7 20 35 20
28 0 35 -4 35 -20z m-1760 -50 c0 -16 -7 -20 -35 -20 -28 0 -35 4 -35 20 0 16
7 20 35 20 28 0 35 -4 35 -20z m252 15 c3 -3 3 -17 0 -30 -4 -25 -5 -25 -113
-25 l-109 0 0 30 0 30 108 0 c60 0 111 -2 114 -5z m-2042 -35 c0 -16 -7 -20
-35 -20 -28 0 -35 4 -35 20 0 16 7 20 35 20 28 0 35 -4 35 -20z m1790 -100 c0
-16 -7 -20 -35 -20 -28 0 -35 4 -35 20 0 16 7 20 35 20 28 0 35 -4 35 -20z
m-1790 -25 c0 -21 -5 -25 -29 -25 -17 0 -33 5 -36 10 -13 21 4 40 35 40 25 0
30 -4 30 -25z m1790 -45 c0 -19 -7 -20 -90 -20 -83 0 -90 1 -90 20 0 19 7 20
90 20 83 0 90 -1 90 -20z m-1680 -25 c0 -25 -1 -25 -84 -25 -48 0 -88 5 -91
10 -16 26 5 35 89 38 l86 3 0 -26z m1680 -45 c0 -16 -7 -20 -35 -20 -28 0 -35
4 -35 20 0 16 7 20 35 20 28 0 35 -4 35 -20z m-1790 -25 c0 -22 -4 -25 -35
-25 -27 0 -35 4 -35 18 0 25 9 32 42 32 23 0 28 -4 28 -25z m1790 -95 c0 -16
-7 -20 -35 -20 -28 0 -35 4 -35 20 0 16 7 20 35 20 28 0 35 -4 35 -20z m-1790
-30 c0 -16 -7 -20 -35 -20 -28 0 -35 4 -35 20 0 16 7 20 35 20 28 0 35 -4 35
-20z m1785 -45 c0 -18 -8 -20 -87 -23 l-88 -3 0 26 0 26 88 -3 c79 -3 87 -5
87 -23z m-1675 -25 c0 -19 -7 -20 -90 -20 -83 0 -90 1 -90 20 0 19 7 20 90 20
83 0 90 -1 90 -20z m1675 -45 c0 -15 -8 -21 -32 -23 -30 -3 -33 -1 -33 23 0
24 3 26 33 23 24 -2 32 -8 32 -23z m-1785 -25 c0 -16 -7 -20 -35 -20 -28 0
-35 4 -35 20 0 16 7 20 35 20 28 0 35 -4 35 -20z m1788 -97 c3 -20 -1 -23 -32
-23 -32 0 -36 3 -36 26 0 23 3 25 33 22 24 -2 33 -8 35 -25z m-1788 -23 c0
-16 -7 -20 -35 -20 -28 0 -35 4 -35 20 0 16 7 20 35 20 28 0 35 -4 35 -20z
m-7232 -16 c12 -8 22 -24 22 -34 0 -24 -26 -50 -50 -50 -22 0 -50 26 -50 46 0
15 35 54 48 54 4 0 18 -7 30 -16z m8970 -12 c45 -2 52 -5 52 -22 0 -19 -7 -20
-90 -20 -88 0 -90 1 -90 24 0 20 4 23 38 22 20 -1 61 -3 90 -4z m-1628 -42 c0
-19 -7 -20 -90 -20 -83 0 -90 1 -90 20 0 19 7 20 90 20 83 0 90 -1 90 -20z
m1680 -50 c0 -16 -7 -20 -35 -20 -28 0 -35 4 -35 20 0 16 7 20 35 20 28 0 35
-4 35 -20z m-1790 -20 c0 -16 -7 -20 -35 -20 -28 0 -35 4 -35 20 0 16 7 20 35
20 28 0 35 -4 35 -20z m1790 -100 c0 -16 -7 -20 -35 -20 -28 0 -35 4 -35 20 0
16 7 20 35 20 28 0 35 -4 35 -20z m-1790 -25 c0 -21 -5 -25 -29 -25 -17 0 -33
5 -36 10 -13 21 4 40 35 40 25 0 30 -4 30 -25z m3560 0 c0 -22 -4 -25 -35 -25
-31 0 -35 3 -35 25 0 22 4 25 35 25 31 0 35 -3 35 -25z m-1770 -45 c0 -19 -7
-20 -90 -20 -83 0 -90 1 -90 20 0 19 7 20 90 20 83 0 90 -1 90 -20z m-1680
-25 c0 -25 -1 -25 -84 -25 -85 0 -103 7 -92 35 4 12 25 15 91 15 84 0 85 0 85
-25z m3450 0 c0 -25 -1 -25 -90 -25 -89 0 -90 0 -90 25 0 25 1 25 90 25 89 0
90 0 90 -25z m-9738 -25 c36 -11 83 -33 106 -50 l42 -30 0 -600 0 -600 -280 0
-280 0 2 602 3 602 40 28 c95 66 246 86 367 48z m7968 -20 c0 -16 -7 -20 -35
-20 -28 0 -35 4 -35 20 0 16 7 20 35 20 28 0 35 -4 35 -20z m-1790 -30 c0 -16
-7 -20 -35 -20 -28 0 -35 4 -35 20 0 16 7 20 35 20 28 0 35 -4 35 -20z m3560
0 c0 -16 -7 -20 -35 -20 -28 0 -35 4 -35 20 0 16 7 20 35 20 28 0 35 -4 35
-20z m-1772 -92 c-2 -18 -11 -24 -35 -26 -30 -3 -33 -1 -33 22 0 23 4 26 36
26 31 0 35 -3 32 -22z m-8873 -27 c80 -40 110 -82 102 -144 -11 -86 -122 -147
-267 -147 -103 0 -172 23 -227 75 -36 35 -43 48 -43 80 0 52 31 97 88 128 69
37 115 47 206 43 62 -3 91 -10 141 -35z m7085 -1 c0 -16 -7 -20 -35 -20 -28 0
-35 4 -35 20 0 16 7 20 35 20 28 0 35 -4 35 -20z m-1620 -635 l0 -645 -557 2
-558 3 -3 68 -3 67 30 0 c31 0 61 22 61 44 0 20 -21 34 -55 38 l-30 3 0 420 0
420 34 5 c66 10 65 65 -2 72 -32 3 -32 4 -35 62 -2 32 -1 65 2 72 4 12 101 14
561 14 l555 0 0 -645z m1140 570 c0 -69 -2 -75 -21 -75 -31 0 -59 -18 -59 -38
0 -26 20 -42 52 -42 l28 0 0 -425 0 -425 -34 0 c-36 0 -51 -18 -41 -51 5 -14
16 -19 41 -19 l34 0 0 -70 0 -70 -555 0 -555 0 0 645 0 645 555 0 555 0 0 -75z
m2267 30 c3 -9 4 -17 2 -19 -2 -2 -43 -7 -91 -11 l-88 -7 0 26 c0 26 0 26 85
26 68 0 87 -3 92 -15z m-1677 -35 c0 -19 -7 -20 -90 -20 -83 0 -90 1 -90 20 0
19 7 20 90 20 83 0 90 -1 90 -20z m1675 -45 c0 -15 -8 -21 -32 -23 -30 -3 -33
-1 -33 23 0 24 3 26 33 23 24 -2 32 -8 32 -23z m-1785 -25 c0 -16 -7 -20 -35
-20 -28 0 -35 4 -35 20 0 16 7 20 35 20 28 0 35 -4 35 -20z m-2760 -35 c0 -16
-45 -21 -54 -6 -8 12 4 21 31 21 14 0 23 -6 23 -15z m80 0 c0 -16 -45 -21 -54
-6 -8 12 4 21 31 21 14 0 23 -6 23 -15z m2200 -10 c0 -9 -9 -15 -25 -15 -16 0
-25 6 -25 15 0 9 9 15 25 15 16 0 25 -6 25 -15z m81 0 c0 -5 -12 -11 -26 -13
-18 -2 -25 1 -25 13 0 12 7 15 25 13 14 -2 26 -7 26 -13z m2189 -56 c0 -15 -7
-19 -35 -19 -28 0 -35 4 -35 19 0 14 8 21 28 23 35 5 42 1 42 -23z m-1790 -19
c0 -16 -7 -20 -35 -20 -28 0 -35 4 -35 20 0 16 7 20 35 20 28 0 35 -4 35 -20z
m1761 -30 c22 0 29 -5 29 -20 0 -19 -7 -20 -90 -20 l-90 0 0 26 c0 27 0 27 61
20 34 -3 75 -6 90 -6z m-1651 -42 c0 -22 -2 -23 -90 -20 -81 3 -90 5 -90 23 0
17 8 19 90 19 87 0 90 -1 90 -22z m1680 -48 c0 -16 -7 -20 -35 -20 -28 0 -35
4 -35 20 0 16 7 20 35 20 28 0 35 -4 35 -20z m-1790 -20 c0 -16 -7 -20 -35
-20 -28 0 -35 4 -35 20 0 16 7 20 35 20 28 0 35 -4 35 -20z m1790 -100 c0 -16
-7 -20 -35 -20 -28 0 -35 4 -35 20 0 16 7 20 35 20 28 0 35 -4 35 -20z m-4880
-15 l0 -25 -110 0 -110 0 0 25 0 25 110 0 110 0 0 -25z m3090 -10 c0 -21 -5
-25 -29 -25 -17 0 -33 5 -36 10 -13 21 4 40 35 40 25 0 30 -4 30 -25z m1790
-45 c0 -19 -7 -20 -90 -20 -83 0 -90 1 -90 20 0 19 7 20 90 20 83 0 90 -1 90
-20z m-5010 -30 c0 -29 -2 -30 -45 -30 -43 0 -45 1 -45 30 0 29 2 30 45 30 43
0 45 -1 45 -30z m250 0 l0 -30 -110 0 -110 0 0 30 0 30 110 0 110 0 0 -30z
m3080 5 l0 -26 -87 3 c-73 3 -88 6 -91 20 -3 17 17 21 136 26 39 2 42 0 42
-23z m1680 -45 c0 -16 -7 -20 -35 -20 -28 0 -35 4 -35 20 0 16 7 20 35 20 28
0 35 -4 35 -20z m-1790 -25 c0 -22 -4 -25 -35 -25 -27 0 -35 4 -35 18 0 25 9
32 42 32 23 0 28 -4 28 -25z m-3157 7 c64 -2 67 -3 67 -27 l0 -25 -110 0 -110
0 0 29 c0 27 2 28 43 27 23 -1 72 -3 110 -4z m4947 -102 c0 -16 -7 -20 -35
-20 -28 0 -35 4 -35 20 0 16 7 20 35 20 28 0 35 -4 35 -20z m210 -10 c0 -6
-33 -10 -80 -10 -47 0 -80 4 -80 10 0 6 33 10 80 10 47 0 80 -4 80 -10z
m-2000 -20 c0 -16 -7 -20 -35 -20 -28 0 -35 4 -35 20 0 16 7 20 35 20 28 0 35
-4 35 -20z m1785 -45 c0 -18 -8 -20 -87 -23 l-88 -3 0 26 0 26 88 -3 c79 -3
87 -5 87 -23z m123 13 c-3 -7 -23 -14 -46 -16 -33 -2 -42 0 -42 12 0 12 11 16
46 16 32 0 44 -4 42 -12z m182 -3 c0 -12 -16 -15 -80 -15 -64 0 -80 3 -80 15
0 12 16 15 80 15 64 0 80 -3 80 -15z m-1620 -231 c0 -147 -3 -223 -10 -219 -6
4 -10 90 -10 226 0 139 4 219 10 219 6 0 10 -82 10 -226z m880 6 c0 -140 -4
-220 -10 -220 -6 0 -10 80 -10 220 0 140 4 220 10 220 6 0 10 -80 10 -220z
m-1240 190 c0 -19 -7 -20 -90 -20 -83 0 -90 1 -90 20 0 19 7 20 90 20 83 0 90
-1 90 -20z m1888 -17 c3 -10 -17 -13 -77 -13 -66 0 -81 3 -81 15 0 13 13 15
77 13 50 -2 78 -7 81 -15z m-213 -28 c0 -15 -8 -21 -32 -23 -30 -3 -33 -1 -33
23 0 24 3 26 33 23 24 -2 32 -8 32 -23z m-1785 -25 c0 -16 -7 -20 -35 -20 -28
0 -35 4 -35 20 0 16 7 20 35 20 28 0 35 -4 35 -20z m-3245 -25 c0 -15 -8 -21
-32 -23 -30 -3 -33 -1 -33 23 0 24 3 26 33 23 24 -2 32 -8 32 -23z m5225 -165
c0 -118 -2 -140 -15 -140 -13 0 -15 21 -15 133 0 74 3 137 7 140 19 19 23 -5
23 -133z m110 0 c0 -77 -4 -140 -9 -140 -8 0 -23 259 -14 273 17 27 23 -9 23
-133z m110 -1 c0 -108 -3 -140 -12 -137 -9 3 -14 40 -16 128 -3 127 0 150 18
150 6 0 10 -51 10 -141z m110 1 c0 -77 -4 -140 -9 -140 -8 0 -22 259 -14 273
16 28 23 -10 23 -133z m110 0 c0 -77 -4 -140 -9 -140 -8 0 -22 259 -14 273 16
28 23 -10 23 -133z m111 127 c-1 -4 -1 -65 -1 -137 0 -80 -4 -130 -10 -130 -6
0 -10 54 -10 141 0 96 3 140 11 137 6 -2 10 -7 10 -11z m111 -128 c-3 -185
-22 -184 -22 1 0 109 3 141 13 137 9 -3 11 -38 9 -138z m113 98 c-3 -184 -6
-237 -15 -237 -6 0 -10 54 -10 141 0 108 3 140 13 137 7 -3 12 -20 12 -41z
m113 -100 c2 -117 0 -137 -13 -137 -13 0 -15 21 -15 141 0 108 3 140 13 137 9
-3 13 -43 15 -141z m107 3 c0 -98 -3 -134 -12 -137 -10 -4 -13 28 -13 137 0
109 3 141 13 138 9 -4 12 -40 12 -138z m113 -3 c2 -117 0 -137 -13 -137 -13 0
-15 21 -15 141 0 108 3 140 13 137 9 -3 13 -43 15 -141z m110 0 c2 -117 0
-137 -13 -137 -13 0 -15 21 -15 141 0 108 3 140 13 137 9 -3 13 -43 15 -141z
m112 -3 c0 -112 -2 -134 -15 -134 -13 0 -15 21 -15 133 0 74 3 137 6 140 18
18 24 -16 24 -139z m110 0 c0 -112 -2 -134 -15 -134 -13 0 -15 21 -15 133 0
74 3 137 6 140 18 18 24 -16 24 -139z m-6552 99 c3 -22 1 -23 -87 -23 -91 0
-91 0 -91 25 l0 26 88 -3 c82 -3 87 -4 90 -25z m4920 0 c3 -20 -1 -23 -32 -23
-32 0 -36 3 -36 26 0 23 3 25 33 22 24 -2 33 -8 35 -25z m-1788 -23 c0 -16 -7
-20 -35 -20 -28 0 -35 4 -35 20 0 16 7 20 35 20 28 0 35 -4 35 -20z m1930
-116 c0 -77 -3 -94 -15 -94 -12 0 -15 17 -15 93 0 52 3 97 6 100 17 17 24 -12
24 -99z m110 0 c0 -77 -3 -94 -15 -94 -12 0 -15 17 -15 93 0 52 3 97 6 100 17
17 24 -12 24 -99z m110 0 c0 -77 -3 -94 -15 -94 -12 0 -15 17 -15 93 0 52 3
97 6 100 17 17 24 -12 24 -99z m110 0 c0 -77 -3 -94 -15 -94 -12 0 -15 17 -15
93 0 52 3 97 6 100 17 17 24 -12 24 -99z m110 0 c0 -77 -3 -94 -15 -94 -12 0
-15 17 -15 93 0 52 3 97 6 100 17 17 24 -12 24 -99z m110 0 c0 -77 -3 -94 -15
-94 -12 0 -15 17 -15 93 0 52 3 97 6 100 17 17 24 -12 24 -99z m110 0 c0 -77
-3 -94 -15 -94 -12 0 -15 17 -15 93 0 52 3 97 6 100 17 17 24 -12 24 -99z
m110 0 c0 -77 -3 -94 -15 -94 -12 0 -15 17 -15 93 0 52 3 97 6 100 17 17 24
-12 24 -99z m110 0 c0 -77 -3 -94 -15 -94 -12 0 -15 17 -15 93 0 52 3 97 6
100 17 17 24 -12 24 -99z m110 0 c0 -77 -3 -94 -15 -94 -12 0 -15 17 -15 93 0
52 3 97 6 100 17 17 24 -12 24 -99z m110 0 c0 -72 -3 -95 -12 -92 -13 5 -24
157 -14 185 14 36 26 -7 26 -93z m110 0 c0 -77 -3 -94 -15 -94 -12 0 -15 17
-15 93 0 52 3 97 6 100 17 17 24 -12 24 -99z m110 0 c0 -56 -4 -94 -10 -94 -6
0 -10 40 -10 101 0 64 4 98 10 94 6 -3 10 -48 10 -101z m110 0 c0 -72 -3 -95
-12 -92 -9 3 -14 34 -16 96 -2 77 0 92 13 92 12 0 15 -16 15 -96z m110 1 c0
-57 -4 -95 -10 -95 -6 0 -10 38 -10 95 0 57 4 95 10 95 6 0 10 -38 10 -95z
m-6712 68 c-2 -12 -14 -19 -36 -21 -27 -3 -32 0 -32 17 0 17 6 21 36 21 28 0
35 -3 32 -17z m482 2 c0 -10 -10 -15 -30 -15 -29 0 -38 9 -23 23 13 13 53 7
53 -8z m80 0 c0 -10 -10 -15 -30 -15 -29 0 -38 9 -23 23 13 13 53 7 53 -8z
m4470 -5 c0 -19 -7 -20 -90 -20 -83 0 -90 1 -90 20 0 19 7 20 90 20 83 0 90
-1 90 -20z m-2270 -5 c0 -9 -9 -15 -25 -15 -16 0 -25 6 -25 15 0 9 9 15 25 15
16 0 25 -6 25 -15z m81 0 c0 -5 -12 -11 -26 -13 -18 -2 -25 1 -25 13 0 12 7
15 25 13 14 -2 26 -7 26 -13z m509 -15 c0 -19 -7 -20 -90 -20 -83 0 -90 1 -90
20 0 19 7 20 90 20 83 0 90 -1 90 -20z m1110 -30 c0 -20 -7 -20 -315 -20 -256
0 -315 3 -315 13 0 8 3 17 7 20 3 4 145 7 315 7 301 0 308 0 308 -20z m-7220
-10 c0 -20 -7 -20 -310 -20 -303 0 -310 0 -310 20 0 20 7 20 310 20 303 0 310
0 310 -20z m7790 -10 c0 -16 -7 -20 -35 -20 -28 0 -35 4 -35 20 0 16 7 20 35
20 28 0 35 -4 35 -20z m-7505 -48 c0 -70 -19 -67 -23 4 -2 43 0 55 10 52 8 -3
13 -23 13 -56z m113 0 c2 -42 0 -52 -12 -52 -13 0 -16 12 -16 56 0 73 24 70
28 -4z m112 -3 c0 -37 -4 -49 -15 -49 -11 0 -15 12 -15 48 0 27 3 52 6 55 15
14 24 -7 24 -54z m110 0 c0 -37 -4 -49 -15 -49 -11 0 -15 12 -15 48 0 27 3 52
6 55 15 14 24 -7 24 -54z m110 0 c0 -37 -4 -49 -15 -49 -11 0 -15 12 -15 48 0
27 3 52 6 55 15 14 24 -7 24 -54z m110 0 c0 -37 -4 -49 -15 -49 -11 0 -15 12
-15 48 0 27 3 52 6 55 15 14 24 -7 24 -54z m110 0 c0 -37 -4 -49 -15 -49 -11
0 -15 12 -15 48 0 27 3 52 6 55 15 14 24 -7 24 -54z m164 43 c-1 -7 -2 -30 -2
-52 -3 -62 -22 -47 -22 16 0 40 3 55 13 52 6 -3 12 -10 11 -16z m114 -40 c2
-42 0 -52 -12 -52 -13 0 -16 12 -16 56 0 73 24 70 28 -4z m312 -3 c0 -37 -4
-49 -15 -49 -11 0 -15 12 -15 48 0 27 3 52 6 55 15 14 24 -7 24 -54z m110 0
c0 -37 -4 -49 -15 -49 -11 0 -15 12 -15 48 0 27 3 52 6 55 15 14 24 -7 24 -54z
m110 0 c0 -37 -4 -49 -15 -49 -11 0 -15 12 -15 48 0 27 3 52 6 55 15 14 24 -7
24 -54z m110 0 c0 -37 -4 -49 -15 -49 -11 0 -15 12 -15 48 0 27 3 52 6 55 15
14 24 -7 24 -54z m108 6 c-4 -66 -22 -78 -26 -16 -4 49 2 71 18 71 7 0 10 -20
8 -55z m112 0 c0 -67 -16 -73 -22 -7 -5 50 -2 62 13 62 5 0 9 -25 9 -55z m110
0 c0 -42 -3 -55 -15 -55 -11 0 -15 12 -15 48 0 27 3 52 7 55 16 17 23 3 23
-48z m110 0 c0 -67 -16 -73 -22 -7 -5 50 -2 62 13 62 5 0 9 -25 9 -55z m110 0
c0 -42 -3 -55 -15 -55 -11 0 -15 12 -15 48 0 27 3 52 7 55 16 17 23 3 23 -48z
m110 0 c0 -67 -16 -73 -22 -7 -5 50 -2 62 13 62 5 0 9 -25 9 -55z m3470 25 c0
-15 -7 -20 -25 -20 -14 0 -28 -1 -32 -2 -5 -2 -9 7 -11 20 -3 19 1 22 32 22
29 0 36 -4 36 -20z m-5770 -45 c0 -24 -5 -35 -15 -35 -10 0 -15 11 -15 35 0
24 5 35 15 35 10 0 15 -11 15 -35z m110 0 c0 -24 -5 -35 -15 -35 -10 0 -15 11
-15 35 0 24 5 35 15 35 10 0 15 -11 15 -35z m110 0 c0 -19 -4 -35 -10 -35 -5
0 -10 16 -10 35 0 19 5 35 10 35 6 0 10 -16 10 -35z m110 0 c0 -24 -5 -35 -15
-35 -15 0 -22 50 -8 63 15 15 23 5 23 -28z m110 0 c0 -19 -4 -35 -10 -35 -5 0
-10 16 -10 35 0 19 5 35 10 35 6 0 10 -16 10 -35z m110 0 c0 -19 -4 -35 -10
-35 -5 0 -10 16 -10 35 0 19 5 35 10 35 6 0 10 -16 10 -35z m110 0 c0 -19 -4
-35 -10 -35 -5 0 -10 16 -10 35 0 19 5 35 10 35 6 0 10 -16 10 -35z m114 -3
c1 -19 -4 -32 -11 -32 -8 0 -13 14 -13 36 0 45 23 41 24 -4z m56 3 c0 -24 -5
-35 -15 -35 -10 0 -15 11 -15 35 0 24 5 35 15 35 10 0 15 -11 15 -35z m110 0
c0 -24 -5 -35 -15 -35 -10 0 -15 11 -15 35 0 24 5 35 15 35 10 0 15 -11 15
-35z m110 0 c0 -24 -5 -35 -15 -35 -10 0 -15 11 -15 35 0 24 5 35 15 35 10 0
15 -11 15 -35z m200 0 c0 -24 -5 -35 -15 -35 -15 0 -22 50 -8 63 15 15 23 5
23 -28z m110 0 c0 -19 -4 -35 -10 -35 -5 0 -10 16 -10 35 0 19 5 35 10 35 6 0
10 -16 10 -35z m111 22 c-1 -4 -1 -18 -1 -32 0 -14 -4 -25 -10 -25 -5 0 -10
16 -10 36 0 21 4 34 11 32 6 -2 10 -7 10 -11z m109 -22 c0 -19 -4 -35 -10 -35
-5 0 -10 16 -10 35 0 19 5 35 10 35 6 0 10 -16 10 -35z m120 0 c0 -24 -5 -35
-15 -35 -10 0 -15 11 -15 35 0 24 5 35 15 35 10 0 15 -11 15 -35z m100 0 c0
-19 -4 -35 -10 -35 -5 0 -10 16 -10 35 0 19 5 35 10 35 6 0 10 -16 10 -35z
m118 -2 c-2 -21 -7 -38 -13 -38 -5 0 -11 17 -13 38 -3 29 0 37 13 37 13 0 16
-8 13 -37z m110 -1 c2 -24 -1 -32 -12 -32 -12 0 -16 10 -16 36 0 45 24 42 28
-4z m112 3 c0 -24 -5 -35 -15 -35 -10 0 -15 11 -15 35 0 24 5 35 15 35 10 0
15 -11 15 -35z m110 0 c0 -24 -5 -35 -15 -35 -10 0 -15 11 -15 35 0 24 5 35
15 35 10 0 15 -11 15 -35z m110 0 c0 -24 -5 -35 -15 -35 -10 0 -15 11 -15 35
0 24 5 35 15 35 10 0 15 -11 15 -35z m4710 5 l0 -30 -395 0 -395 0 0 30 0 30
395 0 395 0 0 -30z m-7212 -17 l-3 -28 -395 0 -395 0 -3 28 -3 27 401 0 401 0
-3 -27z"/>
<path d="M4313 10719 c-138 -23 -272 -113 -341 -230 -20 -32 -52 -136 -52
-166 0 -10 95 -13 481 -13 l482 0 -6 49 c-19 162 -179 315 -372 356 -77 16
-114 17 -192 4z m77 -195 l0 -176 -28 24 c-126 106 -252 223 -249 231 10 31
172 95 245 96 l32 1 0 -176z m180 147 c69 -26 144 -71 133 -81 -38 -35 -284
-240 -288 -240 -3 0 -5 79 -5 176 l0 177 55 -7 c31 -3 78 -15 105 -25z m-346
-212 c75 -67 136 -123 136 -125 0 -2 -93 -4 -206 -4 l-207 0 6 37 c11 65 98
213 126 213 5 0 70 -54 145 -121z m546 74 c40 -50 71 -114 77 -163 l6 -40
-209 0 -209 0 35 29 c19 16 82 70 140 119 58 50 110 91 117 91 6 1 25 -16 43
-36z"/>
<path d="M4044 9656 c-10 -26 4 -48 28 -44 17 2 23 10 23 28 0 18 -6 26 -23
28 -13 2 -25 -3 -28 -12z"/>
<path d="M4131 9657 c-17 -21 -3 -49 23 -45 15 2 21 10 21 28 0 28 -26 38 -44
17z"/>
<path d="M4210 9655 c-11 -13 -11 -19 3 -32 21 -21 49 -9 45 19 -4 28 -30 35
-48 13z"/>
<path d="M4290 9655 c-11 -13 -11 -19 3 -32 21 -21 49 -9 45 19 -4 28 -30 35
-48 13z"/>
<path d="M4374 9655 c-8 -21 2 -45 19 -45 8 0 20 7 27 15 10 12 10 18 0 30 -7
8 -19 15 -27 15 -7 0 -16 -7 -19 -15z"/>
<path d="M4454 9655 c-8 -21 2 -45 19 -45 8 0 20 7 27 15 10 12 10 18 0 30 -7
8 -19 15 -27 15 -7 0 -16 -7 -19 -15z"/>
<path d="M4534 9656 c-10 -26 4 -48 28 -44 17 2 23 10 23 28 0 18 -6 26 -23
28 -13 2 -25 -3 -28 -12z"/>
<path d="M4615 9650 c-8 -26 6 -43 31 -38 13 2 19 12 19 28 0 34 -40 41 -50
10z"/>
<path d="M4700 9655 c-11 -13 -11 -19 3 -32 21 -21 49 -9 45 19 -4 28 -30 35
-48 13z"/>
<path d="M4260 9456 c-76 -17 -130 -35 -191 -66 -24 -12 -45 -23 -46 -24 -2
-1 15 -43 37 -92 76 -174 109 -364 91 -526 -6 -51 -14 -102 -17 -114 -5 -17 2
-25 41 -43 126 -59 269 -65 399 -18 37 14 73 30 78 35 6 6 5 37 -2 86 -17 104
-8 288 20 396 13 47 40 126 61 175 22 50 39 93 39 97 0 12 -70 44 -160 73
-105 33 -252 42 -350 21z m120 -136 l0 -120 -130 0 -131 0 -20 48 c-11 26 -26
59 -34 74 -7 15 -10 30 -7 33 29 28 211 84 280 84 l42 1 0 -120z m183 101 c96
-25 179 -61 174 -75 -3 -6 -17 -41 -33 -78 l-28 -68 -133 0 -133 0 0 120 0
120 38 0 c22 0 73 -9 115 -19z m-183 -552 l0 -302 -52 6 c-29 3 -79 15 -111
28 l-58 22 8 46 c4 25 8 111 7 191 0 135 -6 177 -40 293 -5 16 5 17 120 17
l126 0 0 -301z m277 279 c-34 -151 -40 -197 -41 -288 -1 -58 3 -135 7 -172 l8
-66 -58 -22 c-32 -13 -82 -25 -110 -28 l-53 -4 0 301 0 301 126 0 c126 0 126
0 121 -22z"/>
<path d="M4044 8366 c-10 -26 4 -48 28 -44 17 2 23 10 23 28 0 18 -6 26 -23
28 -13 2 -25 -3 -28 -12z"/>
<path d="M4127 8366 c-10 -26 4 -47 27 -44 15 2 21 10 21 28 0 29 -38 41 -48
16z"/>
<path d="M4210 8365 c-11 -13 -11 -19 3 -32 21 -21 49 -9 45 19 -4 28 -30 35
-48 13z"/>
<path d="M4290 8365 c-11 -13 -11 -19 3 -32 21 -21 49 -9 45 19 -4 28 -30 35
-48 13z"/>
<path d="M4374 8365 c-8 -21 2 -45 19 -45 8 0 20 7 27 15 10 12 10 18 0 30 -7
8 -19 15 -27 15 -7 0 -16 -7 -19 -15z"/>
<path d="M4454 8365 c-8 -21 2 -45 19 -45 8 0 20 7 27 15 10 12 10 18 0 30 -7
8 -19 15 -27 15 -7 0 -16 -7 -19 -15z"/>
<path d="M4534 8366 c-10 -26 4 -48 28 -44 17 2 23 10 23 28 0 18 -6 26 -23
28 -13 2 -25 -3 -28 -12z"/>
<path d="M4615 8370 c-12 -20 6 -51 28 -48 31 4 31 52 0 56 -11 2 -24 -2 -28
-8z"/>
<path d="M4700 8365 c-11 -13 -11 -19 3 -32 21 -21 49 -9 45 19 -4 28 -30 35
-48 13z"/>
<path d="M4300 8191 c-35 -11 -92 -40 -112 -59 -17 -14 -18 -47 -18 -419 l0
-403 -35 0 -35 0 0 -69 c0 -65 2 -70 23 -73 15 -2 21 -9 19 -20 -3 -17 14 -18
241 -18 236 0 245 1 250 20 3 12 14 20 27 20 20 0 21 4 18 68 l-3 67 -32 3
-33 3 0 404 0 405 -39 26 c-72 47 -195 68 -271 45z m213 -43 c26 -11 47 -23
47 -27 0 -3 -76 -6 -170 -6 -93 0 -170 3 -170 6 0 10 70 42 110 50 49 10 127
0 183 -23z m-138 -138 l0 -75 -90 0 -90 0 -3 64 c-4 94 -6 92 95 89 l88 -3 0
-75z m205 0 l0 -80 -90 0 -90 0 0 80 0 80 90 0 90 0 0 -80z m-202 -402 l2
-298 -95 0 -95 0 0 293 c0 162 3 297 7 301 4 4 46 5 93 4 l85 -3 3 -297z m202
2 l0 -300 -90 0 -90 0 0 300 0 300 90 0 90 0 0 -300z m70 -375 l0 -45 -262 2
-263 3 -3 43 -3 42 265 0 266 0 0 -45z m-158 -82 c-62 -2 -161 -2 -220 0 -59
1 -8 3 113 3 121 0 169 -2 107 -3z"/>
<path d="M4330 6814 c-38 -7 -81 -25 -122 -51 l-38 -23 0 -410 0 -410 -35 0
-35 0 0 -70 c0 -62 2 -70 19 -70 10 0 21 -9 24 -20 5 -19 14 -20 246 -20 234
0 241 1 241 20 0 15 7 20 25 20 24 0 25 2 25 70 l0 70 -35 0 -35 0 0 403 0
404 -23 21 c-51 48 -178 80 -257 66z m178 -49 c28 -13 52 -27 52 -30 0 -3 -80
-5 -177 -5 -188 0 -199 4 -107 40 72 28 165 26 232 -5z m-130 -137 l3 -78 -96
0 -95 0 0 73 c0 41 3 77 7 81 4 4 46 5 93 4 l85 -3 3 -77z m202 2 l0 -80 -90
0 -90 0 0 73 c0 41 3 77 7 80 3 4 44 7 90 7 l83 0 0 -80z m-202 -407 l-3 -298
-90 0 -90 0 -3 298 -2 297 95 0 95 0 -2 -297z m202 -3 l0 -301 -87 3 -88 3 -3
298 -2 297 90 0 90 0 0 -300z m70 -367 l0 -43 -265 0 -265 0 0 38 c0 21 2 41
4 43 2 2 122 4 265 4 l261 0 0 -42z m-147 -80 c-62 -2 -164 -2 -225 0 -62 1
-12 3 112 3 124 0 174 -2 113 -3z"/>
<path d="M4279 5415 c-20 -7 -53 -24 -72 -36 l-37 -24 0 -407 0 -408 -35 0
-35 0 0 -69 c0 -65 2 -70 23 -73 15 -2 21 -9 19 -20 -3 -17 14 -18 243 -18
238 0 245 1 245 20 0 15 7 20 25 20 24 0 25 2 25 70 l0 70 -35 0 -35 0 0 403
c0 458 8 415 -90 461 -44 21 -70 26 -130 25 -41 0 -91 -6 -111 -14z m235 -36
c25 -12 46 -23 46 -25 0 -2 -77 -4 -172 -4 -185 0 -198 5 -96 42 66 23 156 18
222 -13z m-136 -136 l-3 -78 -90 0 -90 0 -3 78 -3 77 96 0 96 0 -3 -77z m202
-3 l0 -81 -87 3 -88 3 -3 78 -3 77 91 0 90 0 0 -80z m-202 -402 l2 -298 -95 0
-95 0 0 293 c0 162 3 297 7 301 4 4 46 5 93 4 l85 -3 3 -297z m202 2 l0 -300
-90 0 -90 0 0 300 0 300 90 0 90 0 0 -300z m70 -375 l0 -45 -262 2 -263 3 -3
43 -3 42 265 0 266 0 0 -45z m-50 -75 c0 -6 -79 -10 -216 -10 -141 0 -213 3
-209 10 4 6 87 10 216 10 133 0 209 -4 209 -10z"/>
<path d="M4050 3915 c0 -22 4 -25 40 -25 l40 0 0 -285 0 -285 -40 0 -40 0 0
-55 0 -55 39 0 c36 0 40 -3 43 -27 2 -23 8 -29 35 -31 28 -3 32 0 35 25 l3 28
187 3 187 2 3 -27 c2 -23 8 -29 35 -31 28 -3 32 0 35 25 3 25 7 28 46 31 l42
3 0 55 0 54 -45 0 -45 0 2 283 3 282 43 3 c37 3 42 6 42 28 l0 24 -345 0 -345
0 0 -25z m250 -90 l0 -55 -70 0 -70 0 0 55 0 55 70 0 70 0 0 -55z m330 0 l0
-55 -150 0 -150 0 0 55 0 55 150 0 150 0 0 -55z m-2 -294 l2 -211 -150 0 -150
0 0 213 0 212 147 -2 148 -2 3 -210z m-328 -1 l0 -210 -70 0 -70 0 0 210 0
210 70 0 70 0 0 -210z m410 -270 l0 -30 -320 0 -320 0 0 30 0 30 320 0 320 0
0 -30z m-530 -70 c0 -5 -4 -10 -10 -10 -5 0 -10 5 -10 10 0 6 5 10 10 10 6 0
10 -4 10 -10z m450 0 c0 -5 -4 -10 -10 -10 -5 0 -10 5 -10 10 0 6 5 10 10 10
6 0 10 -4 10 -10z"/>
<path d="M9170 9230 c-208 -29 -382 -187 -406 -369 l-7 -51 483 0 483 0 -6 52
c-13 108 -106 240 -211 302 -94 55 -226 81 -336 66z m60 -196 c0 -167 -1 -176
-17 -163 -76 60 -263 234 -260 243 10 29 177 93 250 95 l27 1 0 -176z m166
151 c54 -16 147 -71 142 -84 -4 -10 -275 -241 -283 -241 -3 0 -5 79 -5 176 l0
177 49 -7 c27 -3 71 -13 97 -21z m-346 -206 c69 -61 132 -117 140 -125 12 -12
-13 -14 -193 -14 -237 0 -224 -7 -186 95 19 51 91 155 107 155 4 0 63 -50 132
-111z m556 69 c36 -44 84 -146 84 -180 l0 -28 -207 0 -208 0 45 38 c24 20 87
74 140 119 52 45 100 82 107 82 6 1 24 -14 39 -31z"/>
<path d="M8290 8590 c-9 -16 -8 -25 1 -36 27 -33 75 -2 52 35 -15 24 -40 25
-53 1z"/>
<path d="M8392 8601 c-21 -13 -11 -55 15 -59 30 -4 49 31 27 52 -18 18 -24 19
-42 7z"/>
<path d="M8480 8595 c-18 -22 -8 -50 19 -50 32 0 49 28 32 49 -17 20 -35 20
-51 1z"/>
<path d="M8570 8596 c-27 -33 18 -72 48 -42 13 13 14 20 6 34 -15 23 -38 26
-54 8z"/>
<path d="M8661 8591 c-7 -13 -6 -23 3 -36 17 -24 50 -15 54 14 6 39 -39 56
-57 22z"/>
<path d="M8762 8601 c-20 -12 -11 -55 12 -59 27 -6 48 25 35 49 -10 20 -26 24
-47 10z"/>
<path d="M8850 8596 c-27 -33 18 -72 48 -42 13 13 14 20 6 34 -15 23 -38 26
-54 8z"/>
<path d="M8939 8594 c-17 -21 0 -49 32 -49 27 0 37 28 19 50 -16 19 -34 19
-51 -1z"/>
<path d="M9042 8601 c-8 -4 -12 -19 -10 -32 2 -18 9 -24 28 -24 19 0 26 6 28
24 3 20 -11 41 -28 41 -3 0 -11 -4 -18 -9z"/>
<path d="M9130 8595 c-17 -20 -8 -49 16 -53 30 -4 48 21 34 47 -13 25 -33 27
-50 6z"/>
<path d="M9220 8596 c-27 -33 18 -72 48 -42 13 13 14 20 6 34 -15 23 -38 26
-54 8z"/>
<path d="M9310 8590 c-9 -16 -8 -25 1 -36 27 -33 75 -2 52 35 -15 24 -40 25
-53 1z"/>
<path d="M9412 8601 c-21 -13 -11 -55 15 -59 30 -4 49 31 27 52 -18 18 -24 19
-42 7z"/>
<path d="M9500 8595 c-18 -22 -8 -50 19 -50 32 0 49 28 32 49 -17 20 -35 20
-51 1z"/>
<path d="M9590 8596 c-27 -33 18 -72 48 -42 13 13 14 20 6 34 -15 23 -38 26
-54 8z"/>
<path d="M9681 8591 c-7 -13 -6 -23 3 -36 17 -24 50 -15 54 14 6 39 -39 56
-57 22z"/>
<path d="M9782 8601 c-20 -12 -11 -55 12 -59 27 -6 48 25 35 49 -10 20 -26 24
-47 10z"/>
<path d="M9870 8596 c-27 -33 18 -72 48 -42 13 13 14 20 6 34 -15 23 -38 26
-54 8z"/>
<path d="M9959 8594 c-17 -21 0 -49 32 -49 27 0 37 28 19 50 -16 19 -34 19
-51 -1z"/>
<path d="M10062 8601 c-8 -4 -12 -19 -10 -32 2 -18 9 -24 28 -24 19 0 26 6 28
24 3 20 -11 41 -28 41 -3 0 -11 -4 -18 -9z"/>
<path d="M10150 8595 c-17 -20 -8 -49 16 -53 30 -4 48 21 34 47 -13 25 -33 27
-50 6z"/>
<path d="M9145 8117 c-52 -13 -148 -61 -166 -83 -6 -8 -10 -192 -9 -527 l0
-516 -47 -3 -48 -3 0 -85 c0 -85 0 -85 27 -88 19 -2 28 -10 30 -25 l3 -22 305
0 305 0 3 23 c3 16 10 22 28 22 24 0 24 1 24 90 l0 90 -45 0 -45 0 0 520 0
520 -39 25 c-92 61 -228 87 -326 62z m203 -32 c48 -15 122 -51 122 -61 0 -2
-105 -4 -232 -4 -214 1 -231 2 -213 16 74 59 217 80 323 49z m-120 -197 l-3
-103 -115 0 -115 0 -3 103 -3 102 121 0 121 0 -3 -102z m260 0 l-3 -103 -115
0 -115 0 -3 103 -3 102 121 0 121 0 -3 -102z m-258 -513 l0 -385 -120 0 -120
0 0 385 0 385 120 0 120 0 0 -385z m260 0 l0 -385 -120 0 -120 0 0 385 0 385
120 0 120 0 0 -385z m90 -475 l0 -60 -340 0 -340 0 0 60 0 60 340 0 340 0 0
-60z m-60 -100 c0 -6 -100 -10 -280 -10 -180 0 -280 4 -280 10 0 6 100 10 280
10 180 0 280 -4 280 -10z"/>
<path d="M9163 6160 c-51 -11 -123 -42 -163 -70 l-30 -21 0 -519 0 -519 -47
-3 -48 -3 0 -85 c0 -85 0 -85 27 -88 19 -2 28 -10 30 -25 l3 -22 305 0 305 0
3 23 c3 16 10 22 28 22 24 0 24 1 24 90 l0 90 -45 0 -45 0 0 520 0 520 -39 25
c-86 57 -215 85 -308 65z m242 -61 l70 -34 -117 -3 c-65 -1 -171 -1 -235 0
l-118 3 45 24 c76 41 120 51 205 48 68 -3 92 -9 150 -38z m-175 -174 l0 -105
-120 0 -120 0 0 105 0 105 120 0 120 0 0 -105z m260 0 l0 -106 -117 3 -118 3
-3 103 -3 102 121 0 120 0 0 -105z m-260 -510 l0 -385 -120 0 -120 0 0 385 0
385 120 0 120 0 0 -385z m260 0 l0 -385 -120 0 -120 0 0 378 c0 208 3 382 7
385 3 4 57 7 120 7 l113 0 0 -385z m90 -475 l0 -60 -340 0 -340 0 0 60 0 60
340 0 340 0 0 -60z m-60 -100 c0 -6 -100 -10 -280 -10 -180 0 -280 4 -280 10
0 6 100 10 280 10 180 0 280 -4 280 -10z"/>
<path d="M9216 4239 c-61 -9 -164 -52 -204 -85 l-22 -19 -3 -623 -2 -622 303
0 302 0 0 623 0 622 -49 33 c-86 59 -212 86 -325 71z m223 -48 c29 -11 71 -32
92 -46 l39 -25 -2 -603 -3 -602 -277 -3 -278 -2 0 603 c0 563 1 605 18 619 28
25 121 69 166 78 63 14 184 5 245 -19z"/>
<path d="M9187 4165 c-21 -8 -51 -24 -67 -35 l-30 -21 0 -110 0 -109 200 0
201 0 -3 111 -3 112 -54 30 c-44 25 -67 31 -130 34 -49 2 -89 -2 -114 -12z
m223 -38 l45 -23 3 -92 3 -92 -176 0 -176 0 3 86 c3 81 5 88 30 107 66 50 185
56 268 14z"/>
<path d="M9090 3400 l0 -450 200 0 200 0 0 450 0 450 -200 0 -200 0 0 -450z
m370 -5 l0 -425 -175 0 -175 0 0 425 0 425 175 0 175 0 0 -425z"/>
<path d="M5290 7215 l0 -35 75 0 75 0 0 -510 0 -510 -75 0 -75 0 0 -85 0 -85
75 0 75 0 0 -51 0 -50 53 3 52 3 3 48 3 47 337 -2 337 -3 3 -47 3 -48 49 0 49
0 3 48 3 47 75 3 75 3 -2 82 -1 82 -76 3 -76 3 2 507 3 507 78 3 77 3 0 34 0
35 -600 0 -600 0 0 -35z m1170 0 c0 -13 -70 -15 -570 -15 -500 0 -570 2 -570
15 0 13 70 15 570 15 500 0 570 -2 570 -15z m-730 -156 l0 -110 -131 3 -130 3
-2 108 -2 107 133 0 132 0 0 -111z m578 4 l-3 -108 -270 0 -270 0 -3 108 -3
107 276 0 276 0 -3 -107z m-578 -518 l0 -385 -130 0 -130 0 0 385 0 385 130 0
130 0 0 -385z m580 0 l0 -385 -275 0 -275 0 0 385 0 385 275 0 275 0 0 -385z
m150 -475 l0 -60 -572 2 -573 3 -3 58 -3 57 576 0 575 0 0 -60z m-942 -122 c3
-24 0 -28 -21 -28 -18 0 -26 6 -29 25 -6 30 0 37 27 33 13 -2 21 -12 23 -30z
m790 0 c3 -25 0 -28 -27 -28 -26 0 -31 4 -31 23 0 30 9 39 35 35 13 -2 21 -12
23 -30z"/>
<path d="M7032 5753 l3 -1448 445 0 445 0 3 1448 2 1447 -450 0 -450 0 2
-1447z m436 1310 l3 -113 -206 0 -205 0 0 115 0 115 203 -2 202 -3 3 -112z
m432 2 l0 -115 -205 0 -205 0 0 108 c0 60 3 112 7 115 3 4 96 7 205 7 l198 0
0 -115z m-435 -445 l0 -305 -202 -3 -203 -2 0 303 c0 167 3 307 7 311 4 3 95
5 202 4 l196 -3 0 -305z m435 0 l0 -310 -202 2 -203 3 -3 295 c-1 162 0 300 2
307 4 8 61 12 205 13 l201 1 0 -311z m-430 -635 l0 -305 -205 0 -205 0 0 305
0 305 205 0 205 0 0 -305z m430 0 l0 -305 -205 0 -205 0 0 305 0 305 205 0
205 0 0 -305z m-430 -640 l0 -305 -205 0 -205 0 0 305 0 305 205 0 205 0 0
-305z m430 0 l0 -305 -202 2 -203 3 -3 303 -2 302 205 0 205 0 0 -305z m-430
-670 l0 -345 -205 0 -205 0 0 345 0 345 205 0 205 0 0 -345z m430 0 l0 -345
-205 0 -205 0 0 338 c0 186 3 342 7 345 3 4 96 7 205 7 l198 0 0 -345z"/>
<path d="M5292 5463 l3 -38 73 -3 72 -3 0 -504 0 -504 -72 -3 -73 -3 -3 -87
-3 -88 76 0 75 0 0 -40 0 -40 55 0 55 0 0 40 0 40 340 0 340 0 0 -40 0 -40 55
0 55 0 0 40 0 39 71 3 71 3 0 85 0 85 -76 3 -76 3 0 504 0 504 78 3 77 3 3 38
3 37 -601 0 -601 0 3 -37z m1168 -3 c0 -7 -197 -10 -570 -10 -373 0 -570 3
-570 10 0 7 197 10 570 10 373 0 570 -3 570 -10z m-730 -150 l0 -110 -130 0
-130 0 0 110 0 110 130 0 130 0 0 -110z m580 0 l0 -110 -275 0 -275 0 0 110 0
110 275 0 275 0 0 -110z m-580 -515 l0 -385 -132 0 -133 0 2 382 c2 211 3 384
3 386 0 1 59 2 130 2 l130 0 0 -385z m578 -2 l2 -383 -275 0 -275 0 0 385 0
385 273 -2 272 -3 3 -382z m152 -473 l0 -60 -575 0 -575 0 0 60 0 60 575 0
575 0 0 -60z m-940 -115 c0 -20 -5 -25 -25 -25 -20 0 -25 5 -25 25 0 20 5 25
25 25 20 0 25 -5 25 -25z m790 0 c0 -20 -5 -25 -25 -25 -20 0 -25 5 -25 25 0
20 5 25 25 25 20 0 25 -5 25 -25z"/>
<path d="M2001 6808 c-64 -7 -184 -57 -227 -95 l-21 -18 43 -365 c24 -201 43
-380 44 -397 0 -32 -2 -33 -38 -33 -55 0 -82 -23 -82 -70 0 -70 2 -70 351 -70
283 0 309 1 330 18 15 13 22 30 22 52 0 45 -32 70 -90 70 l-45 0 6 38 c17 105
86 748 82 759 -9 21 -95 71 -160 92 -75 24 -132 29 -215 19z m174 -32 c58 -16
145 -56 145 -68 0 -4 -115 -8 -255 -8 -140 0 -255 2 -255 5 0 2 19 15 43 29
88 52 222 69 322 42z m-117 -193 l-3 -98 -125 0 -125 0 -6 50 c-4 28 -10 71
-13 98 l-6 47 141 0 140 0 -3 -97z m287 20 c-12 -135 1 -124 -139 -121 l-121
3 -3 84 c-2 46 -1 90 2 98 4 10 36 13 137 13 l131 0 -7 -77z m-285 -378 l0
-235 -100 0 c-55 0 -100 3 -100 8 0 4 -11 102 -25 217 -14 116 -25 218 -25
228 0 15 13 17 125 17 l125 0 0 -235z m267 208 c-3 -16 -15 -121 -28 -235
l-22 -208 -99 0 -98 0 0 235 0 235 126 0 127 0 -6 -27z m-267 -503 l0 -30 -94
0 -94 0 -4 30 -5 30 99 0 98 0 0 -30z m208 3 l-3 -28 -90 0 -90 0 -3 28 -3 27
96 0 96 0 -3 -27z m128 -88 c13 -54 8 -55 -325 -55 -316 0 -331 2 -331 40 0
38 15 40 337 40 l313 0 6 -25z"/>
<path d="M3080 6813 c-60 -5 -123 -25 -182 -56 -100 -52 -96 -14 -49 -429 23
-200 44 -378 47 -395 l5 -33 -46 0 c-53 0 -85 -25 -85 -67 1 -70 15 -73 358
-73 288 0 300 1 326 21 57 45 21 119 -59 119 -41 0 -45 2 -45 25 0 14 18 182
40 372 22 191 40 361 40 377 0 34 -14 46 -104 91 -75 37 -166 55 -246 48z
m200 -52 c30 -12 66 -30 80 -41 l25 -20 -257 0 c-142 0 -258 4 -258 8 0 10
100 57 150 72 56 15 197 5 260 -19z m-170 -181 l0 -100 -124 0 c-143 0 -129
-12 -141 123 l-7 77 136 0 136 0 0 -100z m295 63 c-3 -21 -9 -65 -13 -98 l-7
-60 -123 -3 -122 -3 0 101 0 100 135 0 135 0 -5 -37z m-295 -418 l0 -235 -98
0 -98 0 -23 203 c-12 111 -25 217 -28 235 l-5 32 126 0 126 0 0 -235z m270
218 c0 -10 -11 -112 -25 -228 -14 -115 -25 -213 -25 -217 0 -5 -43 -8 -95 -8
l-95 0 0 235 0 235 120 0 c108 0 120 -2 120 -17z m-270 -513 l0 -31 -92 3 -93
3 -3 28 -3 27 95 0 96 0 0 -30z m212 0 l-4 -30 -89 0 -89 0 0 30 0 30 93 0 94
0 -5 -30z m123 -100 l0 -35 -320 0 -320 0 -3 23 c-8 54 -18 52 325 50 l318 -3
0 -35z"/>
<path d="M1975 5408 c-58 -11 -158 -57 -196 -90 l-26 -23 43 -365 c24 -201 43
-380 43 -397 1 -32 0 -33 -42 -33 -67 0 -98 -52 -67 -111 10 -18 25 -19 339
-19 351 0 343 -1 356 50 4 18 0 34 -15 53 -18 23 -29 27 -72 27 l-50 0 5 33
c4 17 25 196 47 395 48 420 54 379 -64 438 -102 49 -194 63 -301 42z m226 -38
c35 -11 78 -29 94 -40 l30 -20 -252 0 c-139 0 -253 2 -253 5 0 9 84 48 130 61
70 19 179 17 251 -6z m-141 -185 l0 -95 -129 0 -129 0 -6 68 c-4 37 -9 79 -12
95 l-6 27 141 0 141 0 0 -95z m286 18 c-11 -123 1 -113 -142 -113 l-124 0 0
95 0 95 136 0 136 0 -6 -77z m-286 -378 l0 -235 -100 0 c-55 0 -100 3 -100 8
0 4 -11 102 -25 217 -14 116 -25 218 -25 228 0 15 13 17 125 17 l125 0 0 -235z
m267 203 c-4 -18 -16 -118 -27 -223 -11 -104 -23 -196 -25 -203 -4 -9 -29 -12
-97 -10 l-93 3 -3 233 -2 232 126 0 126 0 -5 -32z m-269 -490 l3 -28 -94 0
c-93 0 -95 0 -99 25 -3 13 -3 27 0 30 4 3 47 4 97 3 90 -3 90 -3 93 -30z m210
1 l-3 -31 -90 0 c-76 0 -91 3 -93 17 -8 39 4 45 98 45 l91 0 -3 -31z m113 -69
c21 -12 25 -50 7 -68 -17 -17 -619 -17 -636 0 -17 17 -15 44 4 62 13 14 56 16
310 16 185 0 303 -4 315 -10z"/>
<path d="M3038 5410 c-61 -11 -180 -66 -208 -95 l-22 -23 41 -364 c23 -199 44
-378 47 -395 l5 -33 -46 0 c-53 0 -85 -25 -85 -68 0 -61 4 -62 358 -62 320 0
321 0 336 22 39 55 4 108 -69 108 -41 0 -45 2 -45 25 0 24 76 703 84 753 3 19
-7 30 -48 57 -98 65 -237 95 -348 75z m197 -34 c49 -13 135 -52 135 -61 0 -3
-114 -5 -252 -5 -243 0 -252 1 -228 17 78 55 238 78 345 49z m-125 -191 l0
-95 -124 0 c-143 0 -131 -10 -142 113 l-6 77 136 0 136 0 0 -95z m297 73 c-3
-13 -9 -56 -13 -95 l-7 -73 -123 0 -124 0 0 95 0 95 136 0 c136 0 136 0 131
-22z m-297 -433 l0 -235 -98 0 -98 0 -23 203 c-12 111 -25 217 -28 235 l-5 32
126 0 126 0 0 -235z m270 218 c0 -10 -11 -112 -25 -228 -14 -115 -25 -213 -25
-217 0 -5 -43 -8 -95 -8 l-95 0 0 235 0 235 120 0 c108 0 120 -2 120 -17z
m-270 -503 l0 -30 -85 0 c-47 0 -88 -1 -92 -2 -5 -2 -9 12 -11 30 l-3 32 95 0
96 0 0 -30z m212 25 c3 -3 3 -17 0 -30 -4 -24 -7 -25 -93 -25 l-89 0 0 30 0
30 88 0 c49 0 91 -2 94 -5z m112 -98 c12 -9 17 -23 14 -42 l-3 -30 -320 0
-320 0 -3 30 c-6 53 3 55 323 55 223 0 295 -3 309 -13z"/>
<path d="M3008 4049 c-44 -10 -142 -58 -177 -86 l-24 -19 42 -370 c23 -203 44
-381 47 -396 5 -27 4 -28 -34 -28 -78 0 -121 -71 -72 -120 19 -19 33 -20 335
-20 302 0 316 1 335 20 48 48 6 120 -71 120 -34 0 -39 3 -39 23 0 12 18 180
40 372 23 193 39 364 38 380 -4 38 -73 86 -165 115 -69 21 -186 25 -255 9z
m186 -19 c54 -9 186 -62 186 -74 0 -4 -115 -6 -256 -6 -170 0 -253 3 -249 10
12 19 87 52 149 65 76 17 96 17 170 5z m-84 -200 l0 -100 -124 0 c-144 0 -131
-10 -142 118 l-7 82 137 0 136 0 0 -100z m293 93 c2 -5 -1 -50 -6 -100 l-10
-93 -123 0 -124 0 0 100 0 100 129 0 c72 0 132 -3 134 -7z m-293 -448 l0 -235
-98 0 -99 0 -22 203 c-12 111 -25 217 -28 235 l-5 32 126 0 126 0 0 -235z
m270 218 c0 -10 -11 -115 -25 -233 -14 -117 -25 -215 -25 -217 0 -2 -43 -3
-95 -3 l-95 0 0 235 0 235 120 0 c108 0 120 -2 120 -17z m-270 -513 l0 -30
-95 0 -95 0 0 30 0 30 95 0 95 0 0 -30z m212 0 l-4 -30 -89 0 -89 0 0 30 0 30
93 0 94 0 -5 -30z m123 -100 l0 -35 -320 0 -320 0 -3 23 c-8 54 -18 52 325 50
l318 -3 0 -35z"/>
<path d="M10330 6020 c0 -15 7 -20 25 -20 l25 0 0 -164 c0 -163 0 -165 -22
-168 -19 -2 -24 -10 -26 -40 -3 -35 -1 -38 22 -38 16 0 26 -6 26 -15 0 -10 10
-15 30 -15 20 0 30 5 30 15 0 12 18 15 105 15 87 0 105 -3 105 -15 0 -10 10
-15 30 -15 20 0 30 5 30 15 0 9 10 15 26 15 23 0 25 3 22 38 -3 31 -7 37 -28
40 l-25 3 3 164 3 165 24 0 c18 0 25 5 25 20 0 19 -7 20 -215 20 -208 0 -215
-1 -215 -20z m150 -55 c0 -22 -4 -25 -35 -25 -31 0 -35 3 -35 25 0 22 4 25 35
25 31 0 35 -3 35 -25z m200 0 c0 -25 -1 -25 -85 -25 -84 0 -85 0 -85 25 0 25
1 25 85 25 84 0 85 0 85 -25z m-200 -175 l0 -120 -35 0 -35 0 0 120 0 120 35
0 35 0 0 -120z m200 0 l0 -120 -85 0 -85 0 0 120 0 120 85 0 85 0 0 -120z m50
-160 c0 -6 -68 -10 -185 -10 -117 0 -185 4 -185 10 0 6 68 10 185 10 117 0
185 -4 185 -10z"/>
<path d="M10850 6020 c0 -15 7 -20 25 -20 l25 0 0 -164 c0 -163 0 -165 -22
-168 -19 -2 -24 -10 -26 -40 -3 -35 -1 -38 22 -38 16 0 26 -6 26 -15 0 -10 10
-15 30 -15 20 0 30 5 30 15 0 12 18 15 105 15 87 0 105 -3 105 -15 0 -19 46
-20 53 -1 3 8 16 16 29 18 19 2 23 9 23 38 0 31 -3 35 -28 38 l-27 3 2 162 3
162 28 3 c19 2 27 9 27 23 0 18 -9 19 -215 19 -208 0 -215 -1 -215 -20z m150
-55 c0 -22 -4 -25 -35 -25 -31 0 -35 3 -35 25 0 22 4 25 35 25 31 0 35 -3 35
-25z m200 0 c0 -25 -1 -25 -85 -25 -84 0 -85 0 -85 25 0 25 1 25 85 25 84 0
85 0 85 -25z m-200 -175 l0 -120 -35 0 -35 0 0 120 0 120 35 0 35 0 0 -120z
m200 0 l0 -120 -85 0 -85 0 0 120 0 120 85 0 85 0 0 -120z m50 -160 c0 -6 -68
-10 -185 -10 -117 0 -185 4 -185 10 0 6 68 10 185 10 117 0 185 -4 185 -10z"/>
<path d="M11370 6020 c0 -15 7 -20 25 -20 l25 0 0 -164 c0 -163 0 -165 -22
-168 -19 -2 -24 -10 -26 -40 -3 -35 -1 -38 22 -38 16 0 26 -6 26 -15 0 -9 9
-15 24 -15 13 0 26 7 30 15 4 12 26 15 111 15 87 0 105 -3 105 -15 0 -9 9 -15
25 -15 15 0 25 6 25 14 0 8 12 16 27 18 23 3 27 7 27 38 0 31 -4 35 -27 38
l-27 3 2 162 3 162 28 3 c19 2 27 9 27 23 0 18 -9 19 -215 19 -208 0 -215 -1
-215 -20z m150 -55 c0 -22 -4 -25 -35 -25 -31 0 -35 3 -35 25 0 22 4 25 35 25
31 0 35 -3 35 -25z m200 0 c0 -25 -1 -25 -85 -25 -84 0 -85 0 -85 25 0 25 1
25 85 25 84 0 85 0 85 -25z m-200 -175 l0 -120 -35 0 -35 0 0 120 0 120 35 0
35 0 0 -120z m200 0 l0 -120 -85 0 -85 0 0 120 0 120 85 0 85 0 0 -120z m50
-160 c0 -6 -68 -10 -185 -10 -117 0 -185 4 -185 10 0 6 68 10 185 10 117 0
185 -4 185 -10z"/>
<path d="M10330 4900 c0 -15 7 -20 25 -20 l25 0 0 -165 0 -165 -25 0 c-22 0
-25 -4 -25 -40 0 -36 3 -40 25 -40 16 0 25 -6 25 -15 0 -10 10 -15 30 -15 20
0 30 5 30 15 0 12 18 15 105 15 87 0 105 -3 105 -15 0 -19 46 -20 53 -1 3 8
16 16 29 18 19 2 23 9 23 38 0 31 -3 35 -28 38 l-27 3 2 162 3 162 28 3 c19 2
27 9 27 23 0 18 -9 19 -215 19 -208 0 -215 -1 -215 -20z m150 -50 c0 -28 -3
-30 -35 -30 -32 0 -35 2 -35 30 0 28 3 30 35 30 32 0 35 -2 35 -30z m198 -2
l3 -28 -85 0 -86 0 0 30 0 31 83 -3 c81 -3 82 -3 85 -30z m-198 -178 l0 -120
-35 0 -35 0 0 120 0 120 35 0 35 0 0 -120z m200 0 l0 -120 -85 0 -85 0 0 120
0 120 85 0 85 0 0 -120z m50 -160 c0 -6 -68 -10 -185 -10 -117 0 -185 4 -185
10 0 6 68 10 185 10 117 0 185 -4 185 -10z"/>
<path d="M10850 4900 c0 -15 7 -20 25 -20 l25 0 0 -165 0 -165 -25 0 c-22 0
-25 -4 -25 -40 0 -36 3 -40 25 -40 16 0 25 -6 25 -15 0 -9 9 -15 25 -15 14 0
28 7 31 15 5 12 27 15 110 15 86 0 104 -3 104 -15 0 -9 9 -15 25 -15 15 0 25
6 25 14 0 8 12 16 27 18 23 3 27 7 27 38 0 31 -4 35 -27 38 l-27 3 2 162 3
162 28 3 c19 2 27 9 27 23 0 18 -9 19 -215 19 -208 0 -215 -1 -215 -20z m150
-50 c0 -28 -3 -30 -35 -30 -32 0 -35 2 -35 30 0 28 3 30 35 30 32 0 35 -2 35
-30z m198 -2 l3 -28 -85 0 -86 0 0 30 0 31 83 -3 c81 -3 82 -3 85 -30z m-198
-178 l0 -120 -35 0 -35 0 0 120 0 120 35 0 35 0 0 -120z m200 0 l0 -120 -85 0
-85 0 0 120 0 120 85 0 85 0 0 -120z m50 -160 c0 -6 -68 -10 -185 -10 -117 0
-185 4 -185 10 0 6 68 10 185 10 117 0 185 -4 185 -10z"/>
<path d="M11370 4900 c0 -15 7 -20 25 -20 l25 0 0 -165 0 -165 -25 0 c-22 0
-25 -4 -25 -40 0 -36 3 -40 25 -40 16 0 25 -6 25 -15 0 -9 9 -15 25 -15 16 0
25 6 25 15 0 12 19 15 110 15 91 0 110 -3 110 -15 0 -9 9 -15 25 -15 16 0 25
6 25 15 0 9 9 15 25 15 23 0 25 4 25 40 0 36 -2 40 -25 40 l-25 0 2 163 3 162
28 3 c19 2 27 9 27 23 0 18 -9 19 -215 19 -208 0 -215 -1 -215 -20z m150 -50
c0 -28 -3 -30 -35 -30 -32 0 -35 2 -35 30 0 28 3 30 35 30 32 0 35 -2 35 -30z
m198 -2 l3 -28 -85 0 -86 0 0 30 0 31 83 -3 c81 -3 82 -3 85 -30z m-198 -178
l0 -120 -35 0 -35 0 0 120 0 120 35 0 35 0 0 -120z m200 0 l0 -120 -85 0 -85
0 0 120 0 120 85 0 85 0 0 -120z m50 -160 c0 -6 -68 -10 -185 -10 -117 0 -185
4 -185 10 0 6 68 10 185 10 117 0 185 -4 185 -10z"/>
<path d="M10617 4213 c-4 -3 -7 -21 -7 -40 l0 -33 50 0 c37 0 50 -4 50 -14 0
-11 -14 -16 -47 -18 -48 -3 -48 -3 -48 -38 l0 -35 102 -3 102 -3 3 28 c3 25 7
28 46 31 42 3 42 3 42 43 l0 39 -45 0 c-41 0 -45 2 -45 25 0 25 0 25 -98 25
-54 0 -102 -3 -105 -7z m183 -33 c0 -6 -33 -10 -80 -10 -47 0 -80 4 -80 10 0
6 33 10 80 10 47 0 80 -4 80 -10z m90 -55 c0 -12 -16 -15 -80 -15 -64 0 -80 3
-80 15 0 12 16 15 80 15 64 0 80 -3 80 -15z m-127 -45 c20 0 37 -4 37 -10 0
-6 -33 -10 -80 -10 -44 0 -80 4 -80 8 0 18 16 24 50 18 19 -3 52 -6 73 -6z"/>
<path d="M10332 3838 c2 -15 11 -24 26 -26 22 -3 22 -5 22 -168 l0 -165 -22 3
c-20 3 -23 -2 -26 -34 -3 -35 -1 -38 22 -38 16 0 26 -6 26 -15 0 -10 10 -15
30 -15 19 0 29 5 28 13 -2 9 25 13 105 15 91 2 107 0 107 -13 0 -19 46 -20 53
-1 3 8 16 16 28 18 19 2 23 9 23 38 0 30 -4 35 -25 35 l-24 0 -3 162 -2 162
27 3 c20 2 28 9 28 23 0 19 -8 20 -213 23 l-213 2 3 -22z m148 -53 c0 -22 -4
-25 -35 -25 -31 0 -35 3 -35 25 0 22 4 25 35 25 31 0 35 -3 35 -25z m200 0 c0
-25 -1 -25 -85 -25 -84 0 -85 0 -85 25 0 25 1 25 85 25 84 0 85 0 85 -25z
m-200 -175 l0 -120 -35 0 -35 0 0 120 0 120 35 0 35 0 0 -120z m200 0 l0 -120
-85 0 -85 0 0 120 0 120 85 0 85 0 0 -120z m48 -162 c-4 -10 -52 -14 -186 -16
-158 -2 -182 0 -182 13 0 13 26 15 186 15 144 0 185 -3 182 -12z"/>
<path d="M10852 3838 c2 -15 11 -24 26 -26 22 -3 22 -5 22 -168 l0 -164 -25 0
c-22 0 -25 -4 -25 -35 0 -31 3 -35 25 -35 16 0 25 -6 25 -15 0 -9 9 -15 24
-15 13 0 26 7 30 15 4 12 26 15 111 15 87 0 105 -3 105 -15 0 -9 9 -15 25 -15
16 0 25 6 25 15 0 9 9 15 25 15 22 0 25 4 25 38 0 34 -3 38 -22 38 -23 -1 -23
0 -26 161 l-2 162 27 3 c20 2 28 9 28 23 0 19 -8 20 -213 23 l-213 2 3 -22z
m148 -53 c0 -22 -4 -25 -35 -25 -31 0 -35 3 -35 25 0 22 4 25 35 25 31 0 35
-3 35 -25z m200 0 c0 -25 -1 -25 -85 -25 -84 0 -85 0 -85 25 0 25 1 25 85 25
84 0 85 0 85 -25z m-200 -175 l0 -120 -35 0 -35 0 0 120 0 120 35 0 35 0 0
-120z m200 0 l0 -120 -85 0 -85 0 0 120 0 120 85 0 85 0 0 -120z m48 -162 c-4
-10 -52 -14 -186 -16 -158 -2 -182 0 -182 13 0 13 26 15 186 15 144 0 185 -3
182 -12z"/>
<path d="M11372 3838 c2 -15 11 -24 26 -26 22 -3 22 -5 22 -168 l0 -164 -25 0
c-22 0 -25 -4 -25 -35 0 -31 3 -35 25 -35 16 0 25 -6 25 -15 0 -9 9 -15 24
-15 13 0 26 7 30 15 4 12 26 15 111 15 87 0 105 -3 105 -15 0 -9 9 -15 25 -15
16 0 25 6 25 15 0 9 9 15 25 15 22 0 25 4 25 38 0 34 -3 38 -22 38 -23 -1 -23
0 -26 161 l-2 162 27 3 c20 2 28 9 28 23 0 19 -8 20 -213 23 l-213 2 3 -22z
m148 -53 c0 -22 -4 -25 -35 -25 -31 0 -35 3 -35 25 0 22 4 25 35 25 31 0 35
-3 35 -25z m200 0 c0 -25 -1 -25 -85 -25 -84 0 -85 0 -85 25 0 25 1 25 85 25
84 0 85 0 85 -25z m-200 -175 l0 -120 -35 0 -35 0 0 120 0 120 35 0 35 0 0
-120z m200 0 l0 -120 -85 0 -85 0 0 120 0 120 85 0 85 0 0 -120z m48 -162 c-4
-10 -50 -14 -178 -16 -177 -3 -206 0 -195 18 10 16 378 13 373 -2z"/>
<path d="M1970 3705 l0 -246 98 3 97 3 0 240 0 240 -97 3 -98 3 0 -246z m85 0
l0 -210 -32 -3 -33 -3 0 216 0 216 33 -3 32 -3 0 -210z m85 0 l0 -215 -30 0
-30 0 0 215 0 215 30 0 30 0 0 -215z"/>
<path d="M1863 2944 c-6 -17 6 -45 23 -51 21 -7 47 23 40 45 -9 27 -53 30 -63
6z"/>
<path d="M1962 2948 c-18 -18 -15 -36 9 -48 26 -14 51 4 47 34 -3 24 -37 33
-56 14z"/>
<path d="M2057 2954 c-13 -13 -7 -52 9 -58 22 -9 46 13 42 38 -3 21 -37 34
-51 20z"/>
<path d="M2147 2953 c-12 -11 -8 -40 7 -52 28 -23 68 17 45 45 -12 15 -41 19
-52 7z"/>
<path d="M2234 2938 c-7 -22 19 -52 40 -45 17 6 29 34 23 51 -10 24 -54 21
-63 -6z"/>
<path d="M1080 3905 l0 -45 -45 0 -45 0 0 -40 0 -40 45 0 45 0 0 -45 0 -45 40
0 40 0 0 45 0 45 45 0 45 0 0 40 0 40 -45 0 -45 0 0 45 0 45 -40 0 -40 0 0
-45z m55 -11 c0 -37 -30 -41 -31 -4 0 32 5 42 19 37 7 -2 12 -17 12 -33z m-55
-69 c0 -10 -11 -15 -35 -15 -33 0 -43 8 -28 23 13 14 63 7 63 -8z m58 -3 c2
-7 -6 -12 -17 -12 -21 0 -27 11 -14 24 9 9 26 2 31 -12z m92 3 c0 -10 -11 -15
-35 -15 -24 0 -35 5 -35 15 0 10 11 15 35 15 24 0 35 -5 35 -15z m-92 -77 c-3
-37 -29 -46 -34 -13 -5 29 3 45 21 45 12 0 15 -8 13 -32z"/>
<path d="M6110 3633 c-26 -9 -66 -38 -96 -68 -112 -111 -112 -269 -1 -380 91
-90 204 -110 315 -54 100 50 151 130 152 240 0 108 -49 194 -141 243 -65 36
-161 44 -229 19z m196 -28 c45 -18 102 -72 126 -119 16 -30 22 -59 22 -111 0
-83 -23 -134 -80 -185 -52 -45 -99 -62 -171 -62 -103 1 -188 59 -229 157 -16
40 -19 132 -3 172 50 134 202 202 335 148z"/>
<path d="M6020 3375 l0 -45 185 0 185 0 0 45 0 45 -185 0 -185 0 0 -45z m350
0 l0 -25 -160 0 -160 0 0 25 0 25 160 0 160 0 0 -25z"/>
<path d="M7268 3636 c-160 -44 -244 -220 -180 -378 19 -47 90 -115 144 -138
58 -25 133 -29 197 -9 55 16 133 86 162 145 30 62 31 161 2 225 -55 123 -198
191 -325 155z m189 -44 c48 -25 89 -71 116 -131 15 -35 18 -58 14 -107 -17
-216 -271 -311 -422 -159 -129 129 -80 347 92 411 51 19 148 12 200 -14z"/>
<path d="M7159 3415 c0 -3 -1 -24 -1 -47 l-1 -43 184 0 184 0 3 48 3 47 -185
0 c-103 0 -186 -2 -187 -5z m341 -45 c0 -19 -7 -20 -160 -20 -153 0 -160 1
-160 20 0 19 7 20 160 20 153 0 160 -1 160 -20z"/>
</g>
</svg>
